G04 #@! TF.FileFunction,Copper,L1,Top,Signal*
%FSLAX46Y46*%
G04 Gerber Fmt 4.6, Leading zero omitted, Abs format (unit mm)*
G04 Created by KiCad (PCBNEW 4.0.4+e1-6308~48~ubuntu16.04.1-stable) date Thu Sep 15 22:11:00 2016*
%MOMM*%
%LPD*%
G01*
G04 APERTURE LIST*
%ADD10C,0.100000*%
%ADD11C,1.676400*%
%ADD12R,1.727200X2.032000*%
%ADD13O,1.727200X2.032000*%
%ADD14C,1.998980*%
%ADD15C,1.700000*%
%ADD16C,2.000000*%
%ADD17C,4.064000*%
%ADD18C,0.406400*%
%ADD19C,0.254000*%
G04 APERTURE END LIST*
D10*
D11*
X87900000Y-73400000D03*
X85360000Y-73400000D03*
D12*
X74975720Y-49817020D03*
D13*
X77515720Y-49817020D03*
X80055720Y-49817020D03*
X82595720Y-49817020D03*
X85135720Y-49817020D03*
X87675720Y-49817020D03*
X90215720Y-49817020D03*
X92755720Y-49817020D03*
X95295720Y-49817020D03*
X97835720Y-49817020D03*
X100375720Y-49817020D03*
X102915720Y-49817020D03*
X105455720Y-49817020D03*
X107995720Y-49817020D03*
X110535720Y-49817020D03*
D12*
X74978260Y-65057020D03*
D13*
X77518260Y-65057020D03*
X80058260Y-65057020D03*
X82598260Y-65057020D03*
X85138260Y-65057020D03*
X87678260Y-65057020D03*
X90218260Y-65057020D03*
X92758260Y-65057020D03*
X95298260Y-65057020D03*
X97838260Y-65057020D03*
X100378260Y-65057020D03*
X102918260Y-65057020D03*
X105458260Y-65057020D03*
X107998260Y-65057020D03*
X110538260Y-65057020D03*
D14*
X95800000Y-73400000D03*
X105960000Y-73400000D03*
D15*
X62210000Y-49500000D03*
X56210000Y-49500000D03*
X62210000Y-45500000D03*
X56210000Y-45500000D03*
X51720000Y-59880000D03*
X45720000Y-59880000D03*
X51720000Y-55880000D03*
X45720000Y-55880000D03*
X61880000Y-70040000D03*
X55880000Y-70040000D03*
X61880000Y-66040000D03*
X55880000Y-66040000D03*
X72040000Y-59880000D03*
X66040000Y-59880000D03*
X72040000Y-55880000D03*
X66040000Y-55880000D03*
X88565100Y-59363700D03*
X82565100Y-59363700D03*
X88565100Y-55363700D03*
X82565100Y-55363700D03*
X102765100Y-59363700D03*
X96765100Y-59363700D03*
X102765100Y-55363700D03*
X96765100Y-55363700D03*
D16*
X116000000Y-64500000D03*
X128500000Y-64500000D03*
X116000000Y-69500000D03*
X128500000Y-69500000D03*
X126000000Y-47500000D03*
X138500000Y-47500000D03*
X126000000Y-52500000D03*
X138500000Y-52500000D03*
D17*
X40000000Y-40000000D03*
X40000000Y-75000000D03*
X145000000Y-75000000D03*
X145000000Y-40000000D03*
D18*
X87900000Y-73400000D02*
X95800000Y-73400000D01*
X85360000Y-73400000D02*
X80058260Y-68098260D01*
X80058260Y-68098260D02*
X80058260Y-65057020D01*
X56210000Y-45500000D02*
X62210000Y-45500000D01*
X62210000Y-45500000D02*
X64047400Y-43662600D01*
X64047400Y-43662600D02*
X78867000Y-43662600D01*
X78867000Y-43662600D02*
X82595720Y-47391320D01*
X82595720Y-47391320D02*
X82595720Y-49817020D01*
X87675720Y-47950120D02*
X87675720Y-49817020D01*
X86522276Y-47056675D02*
X87675720Y-47950120D01*
X83896200Y-47066200D02*
X86522276Y-47056675D01*
X79933800Y-42773600D02*
X83896200Y-47066200D01*
X54406800Y-42773600D02*
X79933800Y-42773600D01*
X52019200Y-45161200D02*
X54406800Y-42773600D01*
X52019200Y-49580800D02*
X52019200Y-45161200D01*
X45720000Y-55880000D02*
X52019200Y-49580800D01*
X51720000Y-55880000D02*
X45720000Y-55880000D01*
X66040000Y-55880000D02*
X72040000Y-55880000D01*
X72040000Y-55880000D02*
X75672200Y-52247800D01*
X75672200Y-52247800D02*
X89357200Y-52247800D01*
X89357200Y-52247800D02*
X90215720Y-51389280D01*
X90215720Y-51389280D02*
X90215720Y-49817020D01*
X55880000Y-66040000D02*
X61880000Y-66040000D01*
X61880000Y-66040000D02*
X61930800Y-65989200D01*
X61930800Y-65989200D02*
X68732400Y-65989200D01*
X68732400Y-65989200D02*
X81305400Y-53416200D01*
X81305400Y-53416200D02*
X91313000Y-53416200D01*
X91313000Y-53416200D02*
X92755720Y-51973480D01*
X92755720Y-51973480D02*
X92755720Y-49817020D01*
X96765100Y-55363700D02*
X102765100Y-55363700D01*
X96765100Y-55363700D02*
X93223874Y-59291395D01*
X93223874Y-59291395D02*
X87678260Y-65057020D01*
X82565100Y-55363700D02*
X88565100Y-55363700D01*
X82565100Y-55363700D02*
X74978260Y-62950540D01*
X74978260Y-62950540D02*
X74978260Y-65057020D01*
X126000000Y-47500000D02*
X138500000Y-47500000D01*
X123500000Y-46000000D02*
X96500000Y-46000000D01*
X95295720Y-47204280D02*
X95295720Y-49817020D01*
X96500000Y-46000000D02*
X95295720Y-47204280D01*
X126000000Y-47500000D02*
X125000000Y-47500000D01*
X125000000Y-47500000D02*
X123500000Y-46000000D01*
X116000000Y-64500000D02*
X128500000Y-64500000D01*
X116000000Y-64500000D02*
X115500000Y-64500000D01*
X115500000Y-64500000D02*
X113500000Y-62500000D01*
X113500000Y-62500000D02*
X95315280Y-62500000D01*
X95315280Y-62500000D02*
X92758260Y-65057020D01*
D19*
G36*
X149873000Y-79873000D02*
X35127000Y-79873000D01*
X35127000Y-75576097D01*
X37090496Y-75576097D01*
X37532432Y-76645664D01*
X38350032Y-77464692D01*
X39418825Y-77908494D01*
X40576097Y-77909504D01*
X41645664Y-77467568D01*
X42464692Y-76649968D01*
X42908494Y-75581175D01*
X42908498Y-75576097D01*
X142090496Y-75576097D01*
X142532432Y-76645664D01*
X143350032Y-77464692D01*
X144418825Y-77908494D01*
X145576097Y-77909504D01*
X146645664Y-77467568D01*
X147464692Y-76649968D01*
X147908494Y-75581175D01*
X147909504Y-74423903D01*
X147467568Y-73354336D01*
X146649968Y-72535308D01*
X145581175Y-72091506D01*
X144423903Y-72090496D01*
X143354336Y-72532432D01*
X142535308Y-73350032D01*
X142091506Y-74418825D01*
X142090496Y-75576097D01*
X42908498Y-75576097D01*
X42909504Y-74423903D01*
X42467568Y-73354336D01*
X41649968Y-72535308D01*
X40581175Y-72091506D01*
X39423903Y-72090496D01*
X38354336Y-72532432D01*
X37535308Y-73350032D01*
X37091506Y-74418825D01*
X37090496Y-75576097D01*
X35127000Y-75576097D01*
X35127000Y-71083958D01*
X55015647Y-71083958D01*
X55095920Y-71335259D01*
X55651279Y-71536718D01*
X56241458Y-71510315D01*
X56664080Y-71335259D01*
X56744353Y-71083958D01*
X61015647Y-71083958D01*
X61095920Y-71335259D01*
X61651279Y-71536718D01*
X62241458Y-71510315D01*
X62664080Y-71335259D01*
X62744353Y-71083958D01*
X61880000Y-70219605D01*
X61015647Y-71083958D01*
X56744353Y-71083958D01*
X55880000Y-70219605D01*
X55015647Y-71083958D01*
X35127000Y-71083958D01*
X35127000Y-69811279D01*
X54383282Y-69811279D01*
X54409685Y-70401458D01*
X54584741Y-70824080D01*
X54836042Y-70904353D01*
X55700395Y-70040000D01*
X56059605Y-70040000D01*
X56923958Y-70904353D01*
X57175259Y-70824080D01*
X57376718Y-70268721D01*
X57356254Y-69811279D01*
X60383282Y-69811279D01*
X60409685Y-70401458D01*
X60584741Y-70824080D01*
X60836042Y-70904353D01*
X61700395Y-70040000D01*
X62059605Y-70040000D01*
X62923958Y-70904353D01*
X63175259Y-70824080D01*
X63376718Y-70268721D01*
X63350315Y-69678542D01*
X63175259Y-69255920D01*
X62923958Y-69175647D01*
X62059605Y-70040000D01*
X61700395Y-70040000D01*
X60836042Y-69175647D01*
X60584741Y-69255920D01*
X60383282Y-69811279D01*
X57356254Y-69811279D01*
X57350315Y-69678542D01*
X57175259Y-69255920D01*
X56923958Y-69175647D01*
X56059605Y-70040000D01*
X55700395Y-70040000D01*
X54836042Y-69175647D01*
X54584741Y-69255920D01*
X54383282Y-69811279D01*
X35127000Y-69811279D01*
X35127000Y-68996042D01*
X55015647Y-68996042D01*
X55880000Y-69860395D01*
X56744353Y-68996042D01*
X61015647Y-68996042D01*
X61880000Y-69860395D01*
X62744353Y-68996042D01*
X62664080Y-68744741D01*
X62108721Y-68543282D01*
X61518542Y-68569685D01*
X61095920Y-68744741D01*
X61015647Y-68996042D01*
X56744353Y-68996042D01*
X56664080Y-68744741D01*
X56108721Y-68543282D01*
X55518542Y-68569685D01*
X55095920Y-68744741D01*
X55015647Y-68996042D01*
X35127000Y-68996042D01*
X35127000Y-60923958D01*
X44855647Y-60923958D01*
X44935920Y-61175259D01*
X45491279Y-61376718D01*
X46081458Y-61350315D01*
X46504080Y-61175259D01*
X46584353Y-60923958D01*
X50855647Y-60923958D01*
X50935920Y-61175259D01*
X51491279Y-61376718D01*
X52081458Y-61350315D01*
X52504080Y-61175259D01*
X52584353Y-60923958D01*
X65175647Y-60923958D01*
X65255920Y-61175259D01*
X65811279Y-61376718D01*
X66401458Y-61350315D01*
X66824080Y-61175259D01*
X66904353Y-60923958D01*
X66040000Y-60059605D01*
X65175647Y-60923958D01*
X52584353Y-60923958D01*
X51720000Y-60059605D01*
X50855647Y-60923958D01*
X46584353Y-60923958D01*
X45720000Y-60059605D01*
X44855647Y-60923958D01*
X35127000Y-60923958D01*
X35127000Y-59651279D01*
X44223282Y-59651279D01*
X44249685Y-60241458D01*
X44424741Y-60664080D01*
X44676042Y-60744353D01*
X45540395Y-59880000D01*
X45899605Y-59880000D01*
X46763958Y-60744353D01*
X47015259Y-60664080D01*
X47216718Y-60108721D01*
X47196254Y-59651279D01*
X50223282Y-59651279D01*
X50249685Y-60241458D01*
X50424741Y-60664080D01*
X50676042Y-60744353D01*
X51540395Y-59880000D01*
X51899605Y-59880000D01*
X52763958Y-60744353D01*
X53015259Y-60664080D01*
X53216718Y-60108721D01*
X53196254Y-59651279D01*
X64543282Y-59651279D01*
X64569685Y-60241458D01*
X64744741Y-60664080D01*
X64996042Y-60744353D01*
X65860395Y-59880000D01*
X66219605Y-59880000D01*
X67083958Y-60744353D01*
X67335259Y-60664080D01*
X67536718Y-60108721D01*
X67516254Y-59651279D01*
X70543282Y-59651279D01*
X70569685Y-60241458D01*
X70744741Y-60664080D01*
X70996042Y-60744353D01*
X71860395Y-59880000D01*
X70996042Y-59015647D01*
X70744741Y-59095920D01*
X70543282Y-59651279D01*
X67516254Y-59651279D01*
X67510315Y-59518542D01*
X67335259Y-59095920D01*
X67083958Y-59015647D01*
X66219605Y-59880000D01*
X65860395Y-59880000D01*
X64996042Y-59015647D01*
X64744741Y-59095920D01*
X64543282Y-59651279D01*
X53196254Y-59651279D01*
X53190315Y-59518542D01*
X53015259Y-59095920D01*
X52763958Y-59015647D01*
X51899605Y-59880000D01*
X51540395Y-59880000D01*
X50676042Y-59015647D01*
X50424741Y-59095920D01*
X50223282Y-59651279D01*
X47196254Y-59651279D01*
X47190315Y-59518542D01*
X47015259Y-59095920D01*
X46763958Y-59015647D01*
X45899605Y-59880000D01*
X45540395Y-59880000D01*
X44676042Y-59015647D01*
X44424741Y-59095920D01*
X44223282Y-59651279D01*
X35127000Y-59651279D01*
X35127000Y-58836042D01*
X44855647Y-58836042D01*
X45720000Y-59700395D01*
X46584353Y-58836042D01*
X50855647Y-58836042D01*
X51720000Y-59700395D01*
X52584353Y-58836042D01*
X65175647Y-58836042D01*
X66040000Y-59700395D01*
X66904353Y-58836042D01*
X71175647Y-58836042D01*
X72040000Y-59700395D01*
X72904353Y-58836042D01*
X72824080Y-58584741D01*
X72268721Y-58383282D01*
X71678542Y-58409685D01*
X71255920Y-58584741D01*
X71175647Y-58836042D01*
X66904353Y-58836042D01*
X66824080Y-58584741D01*
X66268721Y-58383282D01*
X65678542Y-58409685D01*
X65255920Y-58584741D01*
X65175647Y-58836042D01*
X52584353Y-58836042D01*
X52504080Y-58584741D01*
X51948721Y-58383282D01*
X51358542Y-58409685D01*
X50935920Y-58584741D01*
X50855647Y-58836042D01*
X46584353Y-58836042D01*
X46504080Y-58584741D01*
X45948721Y-58383282D01*
X45358542Y-58409685D01*
X44935920Y-58584741D01*
X44855647Y-58836042D01*
X35127000Y-58836042D01*
X35127000Y-56222014D01*
X43992701Y-56222014D01*
X44255067Y-56856989D01*
X44740456Y-57343226D01*
X45374971Y-57606700D01*
X46062014Y-57607299D01*
X46696989Y-57344933D01*
X47082394Y-56960200D01*
X50358098Y-56960200D01*
X50740456Y-57343226D01*
X51374971Y-57606700D01*
X52062014Y-57607299D01*
X52696989Y-57344933D01*
X53183226Y-56859544D01*
X53446700Y-56225029D01*
X53447299Y-55537986D01*
X53184933Y-54903011D01*
X52699544Y-54416774D01*
X52065029Y-54153300D01*
X51377986Y-54152701D01*
X50743011Y-54415067D01*
X50357606Y-54799800D01*
X48327834Y-54799800D01*
X52583676Y-50543958D01*
X55345647Y-50543958D01*
X55425920Y-50795259D01*
X55981279Y-50996718D01*
X56571458Y-50970315D01*
X56994080Y-50795259D01*
X57074353Y-50543958D01*
X61345647Y-50543958D01*
X61425920Y-50795259D01*
X61981279Y-50996718D01*
X62571458Y-50970315D01*
X62994080Y-50795259D01*
X63074353Y-50543958D01*
X62210000Y-49679605D01*
X61345647Y-50543958D01*
X57074353Y-50543958D01*
X56210000Y-49679605D01*
X55345647Y-50543958D01*
X52583676Y-50543958D01*
X52783017Y-50344617D01*
X53017175Y-49994175D01*
X53099400Y-49580800D01*
X53099400Y-49271279D01*
X54713282Y-49271279D01*
X54739685Y-49861458D01*
X54914741Y-50284080D01*
X55166042Y-50364353D01*
X56030395Y-49500000D01*
X56389605Y-49500000D01*
X57253958Y-50364353D01*
X57505259Y-50284080D01*
X57706718Y-49728721D01*
X57686254Y-49271279D01*
X60713282Y-49271279D01*
X60739685Y-49861458D01*
X60914741Y-50284080D01*
X61166042Y-50364353D01*
X62030395Y-49500000D01*
X62389605Y-49500000D01*
X63253958Y-50364353D01*
X63505259Y-50284080D01*
X63706718Y-49728721D01*
X63680315Y-49138542D01*
X63505259Y-48715920D01*
X63253958Y-48635647D01*
X62389605Y-49500000D01*
X62030395Y-49500000D01*
X61166042Y-48635647D01*
X60914741Y-48715920D01*
X60713282Y-49271279D01*
X57686254Y-49271279D01*
X57680315Y-49138542D01*
X57505259Y-48715920D01*
X57253958Y-48635647D01*
X56389605Y-49500000D01*
X56030395Y-49500000D01*
X55166042Y-48635647D01*
X54914741Y-48715920D01*
X54713282Y-49271279D01*
X53099400Y-49271279D01*
X53099400Y-48456042D01*
X55345647Y-48456042D01*
X56210000Y-49320395D01*
X57074353Y-48456042D01*
X61345647Y-48456042D01*
X62210000Y-49320395D01*
X63074353Y-48456042D01*
X62994080Y-48204741D01*
X62438721Y-48003282D01*
X61848542Y-48029685D01*
X61425920Y-48204741D01*
X61345647Y-48456042D01*
X57074353Y-48456042D01*
X56994080Y-48204741D01*
X56438721Y-48003282D01*
X55848542Y-48029685D01*
X55425920Y-48204741D01*
X55345647Y-48456042D01*
X53099400Y-48456042D01*
X53099400Y-45608634D01*
X54854234Y-43853800D01*
X55671711Y-43853800D01*
X55233011Y-44035067D01*
X54746774Y-44520456D01*
X54483300Y-45154971D01*
X54482701Y-45842014D01*
X54745067Y-46476989D01*
X55230456Y-46963226D01*
X55864971Y-47226700D01*
X56552014Y-47227299D01*
X57186989Y-46964933D01*
X57572394Y-46580200D01*
X60848098Y-46580200D01*
X61230456Y-46963226D01*
X61864971Y-47226700D01*
X62552014Y-47227299D01*
X63186989Y-46964933D01*
X63673226Y-46479544D01*
X63936700Y-45845029D01*
X63937175Y-45300459D01*
X64494834Y-44742800D01*
X78419566Y-44742800D01*
X81515520Y-47838753D01*
X81515520Y-48296123D01*
X81364930Y-48396744D01*
X81325720Y-48455426D01*
X81286510Y-48396744D01*
X80721819Y-48019429D01*
X80055720Y-47886934D01*
X79389621Y-48019429D01*
X78824930Y-48396744D01*
X78785720Y-48455426D01*
X78746510Y-48396744D01*
X78181819Y-48019429D01*
X77515720Y-47886934D01*
X76849621Y-48019429D01*
X76520184Y-48239552D01*
X76480276Y-48177534D01*
X76187206Y-47977288D01*
X75839320Y-47906839D01*
X74112120Y-47906839D01*
X73787123Y-47967991D01*
X73488634Y-48160064D01*
X73288388Y-48453134D01*
X73217939Y-48801020D01*
X73217939Y-50833020D01*
X73279091Y-51158017D01*
X73471164Y-51456506D01*
X73764234Y-51656752D01*
X74112120Y-51727201D01*
X74665166Y-51727201D01*
X72239193Y-54153173D01*
X71697986Y-54152701D01*
X71063011Y-54415067D01*
X70677606Y-54799800D01*
X67401902Y-54799800D01*
X67019544Y-54416774D01*
X66385029Y-54153300D01*
X65697986Y-54152701D01*
X65063011Y-54415067D01*
X64576774Y-54900456D01*
X64313300Y-55534971D01*
X64312701Y-56222014D01*
X64575067Y-56856989D01*
X65060456Y-57343226D01*
X65694971Y-57606700D01*
X66382014Y-57607299D01*
X67016989Y-57344933D01*
X67402394Y-56960200D01*
X70678098Y-56960200D01*
X71060456Y-57343226D01*
X71694971Y-57606700D01*
X72382014Y-57607299D01*
X73016989Y-57344933D01*
X73503226Y-56859544D01*
X73766700Y-56225029D01*
X73767175Y-55680459D01*
X76119633Y-53328000D01*
X79865966Y-53328000D01*
X73517385Y-59676581D01*
X73510315Y-59518542D01*
X73335259Y-59095920D01*
X73083958Y-59015647D01*
X72219605Y-59880000D01*
X72233748Y-59894143D01*
X72054143Y-60073748D01*
X72040000Y-60059605D01*
X71175647Y-60923958D01*
X71255920Y-61175259D01*
X71811279Y-61376718D01*
X71817528Y-61376438D01*
X68284966Y-64909000D01*
X63191191Y-64909000D01*
X62859544Y-64576774D01*
X62225029Y-64313300D01*
X61537986Y-64312701D01*
X60903011Y-64575067D01*
X60517606Y-64959800D01*
X57241902Y-64959800D01*
X56859544Y-64576774D01*
X56225029Y-64313300D01*
X55537986Y-64312701D01*
X54903011Y-64575067D01*
X54416774Y-65060456D01*
X54153300Y-65694971D01*
X54152701Y-66382014D01*
X54415067Y-67016989D01*
X54900456Y-67503226D01*
X55534971Y-67766700D01*
X56222014Y-67767299D01*
X56856989Y-67504933D01*
X57242394Y-67120200D01*
X60518098Y-67120200D01*
X60900456Y-67503226D01*
X61534971Y-67766700D01*
X62222014Y-67767299D01*
X62856989Y-67504933D01*
X63293283Y-67069400D01*
X68732400Y-67069400D01*
X69145775Y-66987175D01*
X69496217Y-66753017D01*
X80838058Y-55411176D01*
X80837925Y-55563241D01*
X74214443Y-62186723D01*
X73980285Y-62537165D01*
X73898060Y-62950540D01*
X73898060Y-63187595D01*
X73789663Y-63207991D01*
X73491174Y-63400064D01*
X73290928Y-63693134D01*
X73220479Y-64041020D01*
X73220479Y-66073020D01*
X73281631Y-66398017D01*
X73473704Y-66696506D01*
X73766774Y-66896752D01*
X74114660Y-66967201D01*
X75841860Y-66967201D01*
X76166857Y-66906049D01*
X76465346Y-66713976D01*
X76520619Y-66633081D01*
X76852161Y-66854611D01*
X77518260Y-66987106D01*
X78184359Y-66854611D01*
X78749050Y-66477296D01*
X78788260Y-66418614D01*
X78827470Y-66477296D01*
X78978060Y-66577917D01*
X78978060Y-68098260D01*
X79060285Y-68511635D01*
X79294443Y-68862077D01*
X83644963Y-73212596D01*
X83644503Y-73739678D01*
X83905076Y-74370314D01*
X84387149Y-74853228D01*
X85017329Y-75114902D01*
X85699678Y-75115497D01*
X86330314Y-74854924D01*
X86630100Y-74555660D01*
X86927149Y-74853228D01*
X87557329Y-75114902D01*
X88239678Y-75115497D01*
X88870314Y-74854924D01*
X89245692Y-74480200D01*
X94226871Y-74480200D01*
X94735666Y-74989884D01*
X95425105Y-75276164D01*
X96171619Y-75276815D01*
X96861558Y-74991739D01*
X97301901Y-74552163D01*
X104987443Y-74552163D01*
X105086042Y-74818965D01*
X105695582Y-75045401D01*
X106345377Y-75021341D01*
X106833958Y-74818965D01*
X106932557Y-74552163D01*
X105960000Y-73579605D01*
X104987443Y-74552163D01*
X97301901Y-74552163D01*
X97389884Y-74464334D01*
X97676164Y-73774895D01*
X97676721Y-73135582D01*
X104314599Y-73135582D01*
X104338659Y-73785377D01*
X104541035Y-74273958D01*
X104807837Y-74372557D01*
X105780395Y-73400000D01*
X106139605Y-73400000D01*
X107112163Y-74372557D01*
X107378965Y-74273958D01*
X107605401Y-73664418D01*
X107581341Y-73014623D01*
X107378965Y-72526042D01*
X107112163Y-72427443D01*
X106139605Y-73400000D01*
X105780395Y-73400000D01*
X104807837Y-72427443D01*
X104541035Y-72526042D01*
X104314599Y-73135582D01*
X97676721Y-73135582D01*
X97676815Y-73028381D01*
X97391739Y-72338442D01*
X97301292Y-72247837D01*
X104987443Y-72247837D01*
X105960000Y-73220395D01*
X106932557Y-72247837D01*
X106833958Y-71981035D01*
X106224418Y-71754599D01*
X105574623Y-71778659D01*
X105086042Y-71981035D01*
X104987443Y-72247837D01*
X97301292Y-72247837D01*
X96864334Y-71810116D01*
X96174895Y-71523836D01*
X95428381Y-71523185D01*
X94738442Y-71808261D01*
X94226010Y-72319800D01*
X89245229Y-72319800D01*
X88872851Y-71946772D01*
X88242671Y-71685098D01*
X87560322Y-71684503D01*
X86929686Y-71945076D01*
X86629900Y-72244340D01*
X86332851Y-71946772D01*
X85702671Y-71685098D01*
X85172269Y-71684635D01*
X84140166Y-70652532D01*
X115027073Y-70652532D01*
X115125736Y-70919387D01*
X115735461Y-71145908D01*
X116385460Y-71121856D01*
X116874264Y-70919387D01*
X116972927Y-70652532D01*
X127527073Y-70652532D01*
X127625736Y-70919387D01*
X128235461Y-71145908D01*
X128885460Y-71121856D01*
X129374264Y-70919387D01*
X129472927Y-70652532D01*
X128500000Y-69679605D01*
X127527073Y-70652532D01*
X116972927Y-70652532D01*
X116000000Y-69679605D01*
X115027073Y-70652532D01*
X84140166Y-70652532D01*
X82723095Y-69235461D01*
X114354092Y-69235461D01*
X114378144Y-69885460D01*
X114580613Y-70374264D01*
X114847468Y-70472927D01*
X115820395Y-69500000D01*
X116179605Y-69500000D01*
X117152532Y-70472927D01*
X117419387Y-70374264D01*
X117645908Y-69764539D01*
X117626331Y-69235461D01*
X126854092Y-69235461D01*
X126878144Y-69885460D01*
X127080613Y-70374264D01*
X127347468Y-70472927D01*
X128320395Y-69500000D01*
X128679605Y-69500000D01*
X129652532Y-70472927D01*
X129919387Y-70374264D01*
X130145908Y-69764539D01*
X130121856Y-69114540D01*
X129919387Y-68625736D01*
X129652532Y-68527073D01*
X128679605Y-69500000D01*
X128320395Y-69500000D01*
X127347468Y-68527073D01*
X127080613Y-68625736D01*
X126854092Y-69235461D01*
X117626331Y-69235461D01*
X117621856Y-69114540D01*
X117419387Y-68625736D01*
X117152532Y-68527073D01*
X116179605Y-69500000D01*
X115820395Y-69500000D01*
X114847468Y-68527073D01*
X114580613Y-68625736D01*
X114354092Y-69235461D01*
X82723095Y-69235461D01*
X81835102Y-68347468D01*
X115027073Y-68347468D01*
X116000000Y-69320395D01*
X116972927Y-68347468D01*
X127527073Y-68347468D01*
X128500000Y-69320395D01*
X129472927Y-68347468D01*
X129374264Y-68080613D01*
X128764539Y-67854092D01*
X128114540Y-67878144D01*
X127625736Y-68080613D01*
X127527073Y-68347468D01*
X116972927Y-68347468D01*
X116874264Y-68080613D01*
X116264539Y-67854092D01*
X115614540Y-67878144D01*
X115125736Y-68080613D01*
X115027073Y-68347468D01*
X81835102Y-68347468D01*
X81138460Y-67650826D01*
X81138460Y-66577917D01*
X81289050Y-66477296D01*
X81328260Y-66418614D01*
X81367470Y-66477296D01*
X81932161Y-66854611D01*
X82598260Y-66987106D01*
X83264359Y-66854611D01*
X83829050Y-66477296D01*
X83868260Y-66418614D01*
X83907470Y-66477296D01*
X84472161Y-66854611D01*
X85138260Y-66987106D01*
X85804359Y-66854611D01*
X86369050Y-66477296D01*
X86408260Y-66418614D01*
X86447470Y-66477296D01*
X87012161Y-66854611D01*
X87678260Y-66987106D01*
X88344359Y-66854611D01*
X88909050Y-66477296D01*
X88948260Y-66418614D01*
X88987470Y-66477296D01*
X89552161Y-66854611D01*
X90218260Y-66987106D01*
X90884359Y-66854611D01*
X91449050Y-66477296D01*
X91488260Y-66418614D01*
X91527470Y-66477296D01*
X92092161Y-66854611D01*
X92758260Y-66987106D01*
X93424359Y-66854611D01*
X93989050Y-66477296D01*
X94028260Y-66418614D01*
X94067470Y-66477296D01*
X94632161Y-66854611D01*
X95298260Y-66987106D01*
X95964359Y-66854611D01*
X96529050Y-66477296D01*
X96568260Y-66418614D01*
X96607470Y-66477296D01*
X97172161Y-66854611D01*
X97838260Y-66987106D01*
X98504359Y-66854611D01*
X99069050Y-66477296D01*
X99108260Y-66418614D01*
X99147470Y-66477296D01*
X99712161Y-66854611D01*
X100378260Y-66987106D01*
X101044359Y-66854611D01*
X101609050Y-66477296D01*
X101809853Y-66176773D01*
X102016224Y-66407752D01*
X102543469Y-66661729D01*
X102559234Y-66664378D01*
X102791260Y-66543237D01*
X102791260Y-65184020D01*
X102771260Y-65184020D01*
X102771260Y-64930020D01*
X102791260Y-64930020D01*
X102791260Y-64910020D01*
X103045260Y-64910020D01*
X103045260Y-64930020D01*
X103065260Y-64930020D01*
X103065260Y-65184020D01*
X103045260Y-65184020D01*
X103045260Y-66543237D01*
X103277286Y-66664378D01*
X103293051Y-66661729D01*
X103820296Y-66407752D01*
X104026667Y-66176773D01*
X104227470Y-66477296D01*
X104792161Y-66854611D01*
X105458260Y-66987106D01*
X106124359Y-66854611D01*
X106689050Y-66477296D01*
X106728260Y-66418614D01*
X106767470Y-66477296D01*
X107332161Y-66854611D01*
X107998260Y-66987106D01*
X108664359Y-66854611D01*
X109229050Y-66477296D01*
X109268260Y-66418614D01*
X109307470Y-66477296D01*
X109872161Y-66854611D01*
X110538260Y-66987106D01*
X111204359Y-66854611D01*
X111769050Y-66477296D01*
X112146365Y-65912605D01*
X112278860Y-65246506D01*
X112278860Y-64867534D01*
X112146365Y-64201435D01*
X111769050Y-63636744D01*
X111684426Y-63580200D01*
X113052566Y-63580200D01*
X114122868Y-64650502D01*
X114122675Y-64871720D01*
X114407829Y-65561846D01*
X114935376Y-66090316D01*
X115625004Y-66376674D01*
X116371720Y-66377325D01*
X117061846Y-66092171D01*
X117574713Y-65580200D01*
X126926151Y-65580200D01*
X127435376Y-66090316D01*
X128125004Y-66376674D01*
X128871720Y-66377325D01*
X129561846Y-66092171D01*
X130090316Y-65564624D01*
X130376674Y-64874996D01*
X130377325Y-64128280D01*
X130092171Y-63438154D01*
X129564624Y-62909684D01*
X128874996Y-62623326D01*
X128128280Y-62622675D01*
X127438154Y-62907829D01*
X126925287Y-63419800D01*
X117573849Y-63419800D01*
X117064624Y-62909684D01*
X116374996Y-62623326D01*
X115628280Y-62622675D01*
X115290059Y-62762425D01*
X114263817Y-61736183D01*
X113913375Y-61502025D01*
X113500000Y-61419800D01*
X95315280Y-61419800D01*
X94901905Y-61502025D01*
X94551463Y-61736183D01*
X94551461Y-61736186D01*
X93093941Y-63193705D01*
X92758260Y-63126934D01*
X92092161Y-63259429D01*
X91527470Y-63636744D01*
X91488260Y-63695426D01*
X91449050Y-63636744D01*
X90897549Y-63268242D01*
X93648976Y-60407658D01*
X95900747Y-60407658D01*
X95981020Y-60658959D01*
X96536379Y-60860418D01*
X97126558Y-60834015D01*
X97549180Y-60658959D01*
X97629453Y-60407658D01*
X101900747Y-60407658D01*
X101981020Y-60658959D01*
X102536379Y-60860418D01*
X103126558Y-60834015D01*
X103549180Y-60658959D01*
X103629453Y-60407658D01*
X102765100Y-59543305D01*
X101900747Y-60407658D01*
X97629453Y-60407658D01*
X96765100Y-59543305D01*
X95900747Y-60407658D01*
X93648976Y-60407658D01*
X94002400Y-60040213D01*
X94011948Y-60025304D01*
X94026140Y-60014721D01*
X94819318Y-59134979D01*
X95268382Y-59134979D01*
X95294785Y-59725158D01*
X95469841Y-60147780D01*
X95721142Y-60228053D01*
X96585495Y-59363700D01*
X96944705Y-59363700D01*
X97809058Y-60228053D01*
X98060359Y-60147780D01*
X98261818Y-59592421D01*
X98241354Y-59134979D01*
X101268382Y-59134979D01*
X101294785Y-59725158D01*
X101469841Y-60147780D01*
X101721142Y-60228053D01*
X102585495Y-59363700D01*
X102944705Y-59363700D01*
X103809058Y-60228053D01*
X104060359Y-60147780D01*
X104261818Y-59592421D01*
X104235415Y-59002242D01*
X104060359Y-58579620D01*
X103809058Y-58499347D01*
X102944705Y-59363700D01*
X102585495Y-59363700D01*
X101721142Y-58499347D01*
X101469841Y-58579620D01*
X101268382Y-59134979D01*
X98241354Y-59134979D01*
X98235415Y-59002242D01*
X98060359Y-58579620D01*
X97809058Y-58499347D01*
X96944705Y-59363700D01*
X96585495Y-59363700D01*
X95721142Y-58499347D01*
X95469841Y-58579620D01*
X95268382Y-59134979D01*
X94819318Y-59134979D01*
X95554339Y-58319742D01*
X95900747Y-58319742D01*
X96765100Y-59184095D01*
X97629453Y-58319742D01*
X101900747Y-58319742D01*
X102765100Y-59184095D01*
X103629453Y-58319742D01*
X103549180Y-58068441D01*
X102993821Y-57866982D01*
X102403642Y-57893385D01*
X101981020Y-58068441D01*
X101900747Y-58319742D01*
X97629453Y-58319742D01*
X97549180Y-58068441D01*
X96993821Y-57866982D01*
X96403642Y-57893385D01*
X95981020Y-58068441D01*
X95900747Y-58319742D01*
X95554339Y-58319742D01*
X96662529Y-57090611D01*
X97107114Y-57090999D01*
X97742089Y-56828633D01*
X98127494Y-56443900D01*
X101403198Y-56443900D01*
X101785556Y-56826926D01*
X102420071Y-57090400D01*
X103107114Y-57090999D01*
X103742089Y-56828633D01*
X104228326Y-56343244D01*
X104491800Y-55708729D01*
X104492399Y-55021686D01*
X104230033Y-54386711D01*
X103744644Y-53900474D01*
X103147535Y-53652532D01*
X125027073Y-53652532D01*
X125125736Y-53919387D01*
X125735461Y-54145908D01*
X126385460Y-54121856D01*
X126874264Y-53919387D01*
X126972927Y-53652532D01*
X137527073Y-53652532D01*
X137625736Y-53919387D01*
X138235461Y-54145908D01*
X138885460Y-54121856D01*
X139374264Y-53919387D01*
X139472927Y-53652532D01*
X138500000Y-52679605D01*
X137527073Y-53652532D01*
X126972927Y-53652532D01*
X126000000Y-52679605D01*
X125027073Y-53652532D01*
X103147535Y-53652532D01*
X103110129Y-53637000D01*
X102423086Y-53636401D01*
X101788111Y-53898767D01*
X101402706Y-54283500D01*
X98127002Y-54283500D01*
X97744644Y-53900474D01*
X97110129Y-53637000D01*
X96423086Y-53636401D01*
X95788111Y-53898767D01*
X95301874Y-54384156D01*
X95038400Y-55018671D01*
X95037835Y-55666322D01*
X92433286Y-58555117D01*
X87978486Y-63186653D01*
X87678260Y-63126934D01*
X87012161Y-63259429D01*
X86447470Y-63636744D01*
X86408260Y-63695426D01*
X86369050Y-63636744D01*
X85804359Y-63259429D01*
X85138260Y-63126934D01*
X84472161Y-63259429D01*
X83907470Y-63636744D01*
X83868260Y-63695426D01*
X83829050Y-63636744D01*
X83264359Y-63259429D01*
X82598260Y-63126934D01*
X81932161Y-63259429D01*
X81367470Y-63636744D01*
X81328260Y-63695426D01*
X81289050Y-63636744D01*
X80724359Y-63259429D01*
X80058260Y-63126934D01*
X79392161Y-63259429D01*
X78827470Y-63636744D01*
X78788260Y-63695426D01*
X78749050Y-63636744D01*
X78184359Y-63259429D01*
X77518260Y-63126934D01*
X76852161Y-63259429D01*
X76522724Y-63479552D01*
X76482816Y-63417534D01*
X76219094Y-63237340D01*
X79048776Y-60407658D01*
X81700747Y-60407658D01*
X81781020Y-60658959D01*
X82336379Y-60860418D01*
X82926558Y-60834015D01*
X83349180Y-60658959D01*
X83429453Y-60407658D01*
X87700747Y-60407658D01*
X87781020Y-60658959D01*
X88336379Y-60860418D01*
X88926558Y-60834015D01*
X89349180Y-60658959D01*
X89429453Y-60407658D01*
X88565100Y-59543305D01*
X87700747Y-60407658D01*
X83429453Y-60407658D01*
X82565100Y-59543305D01*
X81700747Y-60407658D01*
X79048776Y-60407658D01*
X80321455Y-59134979D01*
X81068382Y-59134979D01*
X81094785Y-59725158D01*
X81269841Y-60147780D01*
X81521142Y-60228053D01*
X82385495Y-59363700D01*
X82744705Y-59363700D01*
X83609058Y-60228053D01*
X83860359Y-60147780D01*
X84061818Y-59592421D01*
X84041354Y-59134979D01*
X87068382Y-59134979D01*
X87094785Y-59725158D01*
X87269841Y-60147780D01*
X87521142Y-60228053D01*
X88385495Y-59363700D01*
X88744705Y-59363700D01*
X89609058Y-60228053D01*
X89860359Y-60147780D01*
X90061818Y-59592421D01*
X90035415Y-59002242D01*
X89860359Y-58579620D01*
X89609058Y-58499347D01*
X88744705Y-59363700D01*
X88385495Y-59363700D01*
X87521142Y-58499347D01*
X87269841Y-58579620D01*
X87068382Y-59134979D01*
X84041354Y-59134979D01*
X84035415Y-59002242D01*
X83860359Y-58579620D01*
X83609058Y-58499347D01*
X82744705Y-59363700D01*
X82385495Y-59363700D01*
X81521142Y-58499347D01*
X81269841Y-58579620D01*
X81068382Y-59134979D01*
X80321455Y-59134979D01*
X81136692Y-58319742D01*
X81700747Y-58319742D01*
X82565100Y-59184095D01*
X83429453Y-58319742D01*
X87700747Y-58319742D01*
X88565100Y-59184095D01*
X89429453Y-58319742D01*
X89349180Y-58068441D01*
X88793821Y-57866982D01*
X88203642Y-57893385D01*
X87781020Y-58068441D01*
X87700747Y-58319742D01*
X83429453Y-58319742D01*
X83349180Y-58068441D01*
X82793821Y-57866982D01*
X82203642Y-57893385D01*
X81781020Y-58068441D01*
X81700747Y-58319742D01*
X81136692Y-58319742D01*
X82365907Y-57090527D01*
X82907114Y-57090999D01*
X83542089Y-56828633D01*
X83927494Y-56443900D01*
X87203198Y-56443900D01*
X87585556Y-56826926D01*
X88220071Y-57090400D01*
X88907114Y-57090999D01*
X89542089Y-56828633D01*
X90028326Y-56343244D01*
X90291800Y-55708729D01*
X90292399Y-55021686D01*
X90075356Y-54496400D01*
X91313000Y-54496400D01*
X91726375Y-54414175D01*
X92076817Y-54180017D01*
X93519537Y-52737297D01*
X93753695Y-52386855D01*
X93783808Y-52235461D01*
X124354092Y-52235461D01*
X124378144Y-52885460D01*
X124580613Y-53374264D01*
X124847468Y-53472927D01*
X125820395Y-52500000D01*
X126179605Y-52500000D01*
X127152532Y-53472927D01*
X127419387Y-53374264D01*
X127645908Y-52764539D01*
X127626331Y-52235461D01*
X136854092Y-52235461D01*
X136878144Y-52885460D01*
X137080613Y-53374264D01*
X137347468Y-53472927D01*
X138320395Y-52500000D01*
X138679605Y-52500000D01*
X139652532Y-53472927D01*
X139919387Y-53374264D01*
X140145908Y-52764539D01*
X140121856Y-52114540D01*
X139919387Y-51625736D01*
X139652532Y-51527073D01*
X138679605Y-52500000D01*
X138320395Y-52500000D01*
X137347468Y-51527073D01*
X137080613Y-51625736D01*
X136854092Y-52235461D01*
X127626331Y-52235461D01*
X127621856Y-52114540D01*
X127419387Y-51625736D01*
X127152532Y-51527073D01*
X126179605Y-52500000D01*
X125820395Y-52500000D01*
X124847468Y-51527073D01*
X124580613Y-51625736D01*
X124354092Y-52235461D01*
X93783808Y-52235461D01*
X93835920Y-51973480D01*
X93835920Y-51337917D01*
X93986510Y-51237296D01*
X94025720Y-51178614D01*
X94064930Y-51237296D01*
X94629621Y-51614611D01*
X95295720Y-51747106D01*
X95961819Y-51614611D01*
X96526510Y-51237296D01*
X96565720Y-51178614D01*
X96604930Y-51237296D01*
X97169621Y-51614611D01*
X97835720Y-51747106D01*
X98501819Y-51614611D01*
X99066510Y-51237296D01*
X99105720Y-51178614D01*
X99144930Y-51237296D01*
X99709621Y-51614611D01*
X100375720Y-51747106D01*
X101041819Y-51614611D01*
X101606510Y-51237296D01*
X101645720Y-51178614D01*
X101684930Y-51237296D01*
X102249621Y-51614611D01*
X102915720Y-51747106D01*
X103581819Y-51614611D01*
X104146510Y-51237296D01*
X104185720Y-51178614D01*
X104224930Y-51237296D01*
X104789621Y-51614611D01*
X105455720Y-51747106D01*
X106121819Y-51614611D01*
X106686510Y-51237296D01*
X106887313Y-50936773D01*
X107093684Y-51167752D01*
X107620929Y-51421729D01*
X107636694Y-51424378D01*
X107868720Y-51303237D01*
X107868720Y-49944020D01*
X107848720Y-49944020D01*
X107848720Y-49690020D01*
X107868720Y-49690020D01*
X107868720Y-48330803D01*
X108122720Y-48330803D01*
X108122720Y-49690020D01*
X108142720Y-49690020D01*
X108142720Y-49944020D01*
X108122720Y-49944020D01*
X108122720Y-51303237D01*
X108354746Y-51424378D01*
X108370511Y-51421729D01*
X108897756Y-51167752D01*
X109104127Y-50936773D01*
X109304930Y-51237296D01*
X109869621Y-51614611D01*
X110535720Y-51747106D01*
X111201819Y-51614611D01*
X111601626Y-51347468D01*
X125027073Y-51347468D01*
X126000000Y-52320395D01*
X126972927Y-51347468D01*
X137527073Y-51347468D01*
X138500000Y-52320395D01*
X139472927Y-51347468D01*
X139374264Y-51080613D01*
X138764539Y-50854092D01*
X138114540Y-50878144D01*
X137625736Y-51080613D01*
X137527073Y-51347468D01*
X126972927Y-51347468D01*
X126874264Y-51080613D01*
X126264539Y-50854092D01*
X125614540Y-50878144D01*
X125125736Y-51080613D01*
X125027073Y-51347468D01*
X111601626Y-51347468D01*
X111766510Y-51237296D01*
X112143825Y-50672605D01*
X112276320Y-50006506D01*
X112276320Y-49627534D01*
X112143825Y-48961435D01*
X111766510Y-48396744D01*
X111201819Y-48019429D01*
X110535720Y-47886934D01*
X109869621Y-48019429D01*
X109304930Y-48396744D01*
X109104127Y-48697267D01*
X108897756Y-48466288D01*
X108370511Y-48212311D01*
X108354746Y-48209662D01*
X108122720Y-48330803D01*
X107868720Y-48330803D01*
X107636694Y-48209662D01*
X107620929Y-48212311D01*
X107093684Y-48466288D01*
X106887313Y-48697267D01*
X106686510Y-48396744D01*
X106121819Y-48019429D01*
X105455720Y-47886934D01*
X104789621Y-48019429D01*
X104224930Y-48396744D01*
X104185720Y-48455426D01*
X104146510Y-48396744D01*
X103581819Y-48019429D01*
X102915720Y-47886934D01*
X102249621Y-48019429D01*
X101684930Y-48396744D01*
X101645720Y-48455426D01*
X101606510Y-48396744D01*
X101041819Y-48019429D01*
X100375720Y-47886934D01*
X99709621Y-48019429D01*
X99144930Y-48396744D01*
X99105720Y-48455426D01*
X99066510Y-48396744D01*
X98501819Y-48019429D01*
X97835720Y-47886934D01*
X97169621Y-48019429D01*
X96604930Y-48396744D01*
X96565720Y-48455426D01*
X96526510Y-48396744D01*
X96375920Y-48296123D01*
X96375920Y-47651714D01*
X96947434Y-47080200D01*
X123052566Y-47080200D01*
X124236183Y-48263817D01*
X124303184Y-48308586D01*
X124407829Y-48561846D01*
X124935376Y-49090316D01*
X125625004Y-49376674D01*
X126371720Y-49377325D01*
X127061846Y-49092171D01*
X127574713Y-48580200D01*
X136926151Y-48580200D01*
X137435376Y-49090316D01*
X138125004Y-49376674D01*
X138871720Y-49377325D01*
X139561846Y-49092171D01*
X140090316Y-48564624D01*
X140376674Y-47874996D01*
X140377325Y-47128280D01*
X140092171Y-46438154D01*
X139564624Y-45909684D01*
X138874996Y-45623326D01*
X138128280Y-45622675D01*
X137438154Y-45907829D01*
X136925287Y-46419800D01*
X127573849Y-46419800D01*
X127064624Y-45909684D01*
X126374996Y-45623326D01*
X125628280Y-45622675D01*
X124938154Y-45907829D01*
X124936807Y-45909173D01*
X124263817Y-45236183D01*
X123913375Y-45002025D01*
X123500000Y-44919800D01*
X96500000Y-44919800D01*
X96086625Y-45002025D01*
X95736183Y-45236183D01*
X94531903Y-46440463D01*
X94297745Y-46790905D01*
X94215520Y-47204280D01*
X94215520Y-48296123D01*
X94064930Y-48396744D01*
X94025720Y-48455426D01*
X93986510Y-48396744D01*
X93421819Y-48019429D01*
X92755720Y-47886934D01*
X92089621Y-48019429D01*
X91524930Y-48396744D01*
X91485720Y-48455426D01*
X91446510Y-48396744D01*
X90881819Y-48019429D01*
X90215720Y-47886934D01*
X89549621Y-48019429D01*
X88984930Y-48396744D01*
X88945720Y-48455426D01*
X88906510Y-48396744D01*
X88755920Y-48296123D01*
X88755920Y-47950120D01*
X88742498Y-47882640D01*
X88747310Y-47814005D01*
X88701733Y-47677702D01*
X88673695Y-47536745D01*
X88635471Y-47479539D01*
X88613652Y-47414287D01*
X88519384Y-47305802D01*
X88439537Y-47186303D01*
X88382329Y-47148078D01*
X88337201Y-47096144D01*
X87183757Y-46202699D01*
X87053424Y-46137686D01*
X86932028Y-46057207D01*
X86866418Y-46044404D01*
X86806602Y-46014566D01*
X86661311Y-46004378D01*
X86518358Y-45976482D01*
X84367560Y-45984283D01*
X80727535Y-42040922D01*
X80709802Y-42028019D01*
X80697617Y-42009783D01*
X80540001Y-41904467D01*
X80386731Y-41792944D01*
X80365410Y-41787809D01*
X80347175Y-41775625D01*
X80161260Y-41738644D01*
X79976973Y-41694263D01*
X79955309Y-41697678D01*
X79933800Y-41693400D01*
X54406800Y-41693400D01*
X53993425Y-41775625D01*
X53642983Y-42009783D01*
X51255383Y-44397383D01*
X51021225Y-44747825D01*
X50939000Y-45161200D01*
X50939000Y-49133366D01*
X45919193Y-54153173D01*
X45377986Y-54152701D01*
X44743011Y-54415067D01*
X44256774Y-54900456D01*
X43993300Y-55534971D01*
X43992701Y-56222014D01*
X35127000Y-56222014D01*
X35127000Y-40576097D01*
X37090496Y-40576097D01*
X37532432Y-41645664D01*
X38350032Y-42464692D01*
X39418825Y-42908494D01*
X40576097Y-42909504D01*
X41645664Y-42467568D01*
X42464692Y-41649968D01*
X42908494Y-40581175D01*
X42908498Y-40576097D01*
X142090496Y-40576097D01*
X142532432Y-41645664D01*
X143350032Y-42464692D01*
X144418825Y-42908494D01*
X145576097Y-42909504D01*
X146645664Y-42467568D01*
X147464692Y-41649968D01*
X147908494Y-40581175D01*
X147909504Y-39423903D01*
X147467568Y-38354336D01*
X146649968Y-37535308D01*
X145581175Y-37091506D01*
X144423903Y-37090496D01*
X143354336Y-37532432D01*
X142535308Y-38350032D01*
X142091506Y-39418825D01*
X142090496Y-40576097D01*
X42908498Y-40576097D01*
X42909504Y-39423903D01*
X42467568Y-38354336D01*
X41649968Y-37535308D01*
X40581175Y-37091506D01*
X39423903Y-37090496D01*
X38354336Y-37532432D01*
X37535308Y-38350032D01*
X37091506Y-39418825D01*
X37090496Y-40576097D01*
X35127000Y-40576097D01*
X35127000Y-35127000D01*
X149873000Y-35127000D01*
X149873000Y-79873000D01*
X149873000Y-79873000D01*
G37*
X149873000Y-79873000D02*
X35127000Y-79873000D01*
X35127000Y-75576097D01*
X37090496Y-75576097D01*
X37532432Y-76645664D01*
X38350032Y-77464692D01*
X39418825Y-77908494D01*
X40576097Y-77909504D01*
X41645664Y-77467568D01*
X42464692Y-76649968D01*
X42908494Y-75581175D01*
X42908498Y-75576097D01*
X142090496Y-75576097D01*
X142532432Y-76645664D01*
X143350032Y-77464692D01*
X144418825Y-77908494D01*
X145576097Y-77909504D01*
X146645664Y-77467568D01*
X147464692Y-76649968D01*
X147908494Y-75581175D01*
X147909504Y-74423903D01*
X147467568Y-73354336D01*
X146649968Y-72535308D01*
X145581175Y-72091506D01*
X144423903Y-72090496D01*
X143354336Y-72532432D01*
X142535308Y-73350032D01*
X142091506Y-74418825D01*
X142090496Y-75576097D01*
X42908498Y-75576097D01*
X42909504Y-74423903D01*
X42467568Y-73354336D01*
X41649968Y-72535308D01*
X40581175Y-72091506D01*
X39423903Y-72090496D01*
X38354336Y-72532432D01*
X37535308Y-73350032D01*
X37091506Y-74418825D01*
X37090496Y-75576097D01*
X35127000Y-75576097D01*
X35127000Y-71083958D01*
X55015647Y-71083958D01*
X55095920Y-71335259D01*
X55651279Y-71536718D01*
X56241458Y-71510315D01*
X56664080Y-71335259D01*
X56744353Y-71083958D01*
X61015647Y-71083958D01*
X61095920Y-71335259D01*
X61651279Y-71536718D01*
X62241458Y-71510315D01*
X62664080Y-71335259D01*
X62744353Y-71083958D01*
X61880000Y-70219605D01*
X61015647Y-71083958D01*
X56744353Y-71083958D01*
X55880000Y-70219605D01*
X55015647Y-71083958D01*
X35127000Y-71083958D01*
X35127000Y-69811279D01*
X54383282Y-69811279D01*
X54409685Y-70401458D01*
X54584741Y-70824080D01*
X54836042Y-70904353D01*
X55700395Y-70040000D01*
X56059605Y-70040000D01*
X56923958Y-70904353D01*
X57175259Y-70824080D01*
X57376718Y-70268721D01*
X57356254Y-69811279D01*
X60383282Y-69811279D01*
X60409685Y-70401458D01*
X60584741Y-70824080D01*
X60836042Y-70904353D01*
X61700395Y-70040000D01*
X62059605Y-70040000D01*
X62923958Y-70904353D01*
X63175259Y-70824080D01*
X63376718Y-70268721D01*
X63350315Y-69678542D01*
X63175259Y-69255920D01*
X62923958Y-69175647D01*
X62059605Y-70040000D01*
X61700395Y-70040000D01*
X60836042Y-69175647D01*
X60584741Y-69255920D01*
X60383282Y-69811279D01*
X57356254Y-69811279D01*
X57350315Y-69678542D01*
X57175259Y-69255920D01*
X56923958Y-69175647D01*
X56059605Y-70040000D01*
X55700395Y-70040000D01*
X54836042Y-69175647D01*
X54584741Y-69255920D01*
X54383282Y-69811279D01*
X35127000Y-69811279D01*
X35127000Y-68996042D01*
X55015647Y-68996042D01*
X55880000Y-69860395D01*
X56744353Y-68996042D01*
X61015647Y-68996042D01*
X61880000Y-69860395D01*
X62744353Y-68996042D01*
X62664080Y-68744741D01*
X62108721Y-68543282D01*
X61518542Y-68569685D01*
X61095920Y-68744741D01*
X61015647Y-68996042D01*
X56744353Y-68996042D01*
X56664080Y-68744741D01*
X56108721Y-68543282D01*
X55518542Y-68569685D01*
X55095920Y-68744741D01*
X55015647Y-68996042D01*
X35127000Y-68996042D01*
X35127000Y-60923958D01*
X44855647Y-60923958D01*
X44935920Y-61175259D01*
X45491279Y-61376718D01*
X46081458Y-61350315D01*
X46504080Y-61175259D01*
X46584353Y-60923958D01*
X50855647Y-60923958D01*
X50935920Y-61175259D01*
X51491279Y-61376718D01*
X52081458Y-61350315D01*
X52504080Y-61175259D01*
X52584353Y-60923958D01*
X65175647Y-60923958D01*
X65255920Y-61175259D01*
X65811279Y-61376718D01*
X66401458Y-61350315D01*
X66824080Y-61175259D01*
X66904353Y-60923958D01*
X66040000Y-60059605D01*
X65175647Y-60923958D01*
X52584353Y-60923958D01*
X51720000Y-60059605D01*
X50855647Y-60923958D01*
X46584353Y-60923958D01*
X45720000Y-60059605D01*
X44855647Y-60923958D01*
X35127000Y-60923958D01*
X35127000Y-59651279D01*
X44223282Y-59651279D01*
X44249685Y-60241458D01*
X44424741Y-60664080D01*
X44676042Y-60744353D01*
X45540395Y-59880000D01*
X45899605Y-59880000D01*
X46763958Y-60744353D01*
X47015259Y-60664080D01*
X47216718Y-60108721D01*
X47196254Y-59651279D01*
X50223282Y-59651279D01*
X50249685Y-60241458D01*
X50424741Y-60664080D01*
X50676042Y-60744353D01*
X51540395Y-59880000D01*
X51899605Y-59880000D01*
X52763958Y-60744353D01*
X53015259Y-60664080D01*
X53216718Y-60108721D01*
X53196254Y-59651279D01*
X64543282Y-59651279D01*
X64569685Y-60241458D01*
X64744741Y-60664080D01*
X64996042Y-60744353D01*
X65860395Y-59880000D01*
X66219605Y-59880000D01*
X67083958Y-60744353D01*
X67335259Y-60664080D01*
X67536718Y-60108721D01*
X67516254Y-59651279D01*
X70543282Y-59651279D01*
X70569685Y-60241458D01*
X70744741Y-60664080D01*
X70996042Y-60744353D01*
X71860395Y-59880000D01*
X70996042Y-59015647D01*
X70744741Y-59095920D01*
X70543282Y-59651279D01*
X67516254Y-59651279D01*
X67510315Y-59518542D01*
X67335259Y-59095920D01*
X67083958Y-59015647D01*
X66219605Y-59880000D01*
X65860395Y-59880000D01*
X64996042Y-59015647D01*
X64744741Y-59095920D01*
X64543282Y-59651279D01*
X53196254Y-59651279D01*
X53190315Y-59518542D01*
X53015259Y-59095920D01*
X52763958Y-59015647D01*
X51899605Y-59880000D01*
X51540395Y-59880000D01*
X50676042Y-59015647D01*
X50424741Y-59095920D01*
X50223282Y-59651279D01*
X47196254Y-59651279D01*
X47190315Y-59518542D01*
X47015259Y-59095920D01*
X46763958Y-59015647D01*
X45899605Y-59880000D01*
X45540395Y-59880000D01*
X44676042Y-59015647D01*
X44424741Y-59095920D01*
X44223282Y-59651279D01*
X35127000Y-59651279D01*
X35127000Y-58836042D01*
X44855647Y-58836042D01*
X45720000Y-59700395D01*
X46584353Y-58836042D01*
X50855647Y-58836042D01*
X51720000Y-59700395D01*
X52584353Y-58836042D01*
X65175647Y-58836042D01*
X66040000Y-59700395D01*
X66904353Y-58836042D01*
X71175647Y-58836042D01*
X72040000Y-59700395D01*
X72904353Y-58836042D01*
X72824080Y-58584741D01*
X72268721Y-58383282D01*
X71678542Y-58409685D01*
X71255920Y-58584741D01*
X71175647Y-58836042D01*
X66904353Y-58836042D01*
X66824080Y-58584741D01*
X66268721Y-58383282D01*
X65678542Y-58409685D01*
X65255920Y-58584741D01*
X65175647Y-58836042D01*
X52584353Y-58836042D01*
X52504080Y-58584741D01*
X51948721Y-58383282D01*
X51358542Y-58409685D01*
X50935920Y-58584741D01*
X50855647Y-58836042D01*
X46584353Y-58836042D01*
X46504080Y-58584741D01*
X45948721Y-58383282D01*
X45358542Y-58409685D01*
X44935920Y-58584741D01*
X44855647Y-58836042D01*
X35127000Y-58836042D01*
X35127000Y-56222014D01*
X43992701Y-56222014D01*
X44255067Y-56856989D01*
X44740456Y-57343226D01*
X45374971Y-57606700D01*
X46062014Y-57607299D01*
X46696989Y-57344933D01*
X47082394Y-56960200D01*
X50358098Y-56960200D01*
X50740456Y-57343226D01*
X51374971Y-57606700D01*
X52062014Y-57607299D01*
X52696989Y-57344933D01*
X53183226Y-56859544D01*
X53446700Y-56225029D01*
X53447299Y-55537986D01*
X53184933Y-54903011D01*
X52699544Y-54416774D01*
X52065029Y-54153300D01*
X51377986Y-54152701D01*
X50743011Y-54415067D01*
X50357606Y-54799800D01*
X48327834Y-54799800D01*
X52583676Y-50543958D01*
X55345647Y-50543958D01*
X55425920Y-50795259D01*
X55981279Y-50996718D01*
X56571458Y-50970315D01*
X56994080Y-50795259D01*
X57074353Y-50543958D01*
X61345647Y-50543958D01*
X61425920Y-50795259D01*
X61981279Y-50996718D01*
X62571458Y-50970315D01*
X62994080Y-50795259D01*
X63074353Y-50543958D01*
X62210000Y-49679605D01*
X61345647Y-50543958D01*
X57074353Y-50543958D01*
X56210000Y-49679605D01*
X55345647Y-50543958D01*
X52583676Y-50543958D01*
X52783017Y-50344617D01*
X53017175Y-49994175D01*
X53099400Y-49580800D01*
X53099400Y-49271279D01*
X54713282Y-49271279D01*
X54739685Y-49861458D01*
X54914741Y-50284080D01*
X55166042Y-50364353D01*
X56030395Y-49500000D01*
X56389605Y-49500000D01*
X57253958Y-50364353D01*
X57505259Y-50284080D01*
X57706718Y-49728721D01*
X57686254Y-49271279D01*
X60713282Y-49271279D01*
X60739685Y-49861458D01*
X60914741Y-50284080D01*
X61166042Y-50364353D01*
X62030395Y-49500000D01*
X62389605Y-49500000D01*
X63253958Y-50364353D01*
X63505259Y-50284080D01*
X63706718Y-49728721D01*
X63680315Y-49138542D01*
X63505259Y-48715920D01*
X63253958Y-48635647D01*
X62389605Y-49500000D01*
X62030395Y-49500000D01*
X61166042Y-48635647D01*
X60914741Y-48715920D01*
X60713282Y-49271279D01*
X57686254Y-49271279D01*
X57680315Y-49138542D01*
X57505259Y-48715920D01*
X57253958Y-48635647D01*
X56389605Y-49500000D01*
X56030395Y-49500000D01*
X55166042Y-48635647D01*
X54914741Y-48715920D01*
X54713282Y-49271279D01*
X53099400Y-49271279D01*
X53099400Y-48456042D01*
X55345647Y-48456042D01*
X56210000Y-49320395D01*
X57074353Y-48456042D01*
X61345647Y-48456042D01*
X62210000Y-49320395D01*
X63074353Y-48456042D01*
X62994080Y-48204741D01*
X62438721Y-48003282D01*
X61848542Y-48029685D01*
X61425920Y-48204741D01*
X61345647Y-48456042D01*
X57074353Y-48456042D01*
X56994080Y-48204741D01*
X56438721Y-48003282D01*
X55848542Y-48029685D01*
X55425920Y-48204741D01*
X55345647Y-48456042D01*
X53099400Y-48456042D01*
X53099400Y-45608634D01*
X54854234Y-43853800D01*
X55671711Y-43853800D01*
X55233011Y-44035067D01*
X54746774Y-44520456D01*
X54483300Y-45154971D01*
X54482701Y-45842014D01*
X54745067Y-46476989D01*
X55230456Y-46963226D01*
X55864971Y-47226700D01*
X56552014Y-47227299D01*
X57186989Y-46964933D01*
X57572394Y-46580200D01*
X60848098Y-46580200D01*
X61230456Y-46963226D01*
X61864971Y-47226700D01*
X62552014Y-47227299D01*
X63186989Y-46964933D01*
X63673226Y-46479544D01*
X63936700Y-45845029D01*
X63937175Y-45300459D01*
X64494834Y-44742800D01*
X78419566Y-44742800D01*
X81515520Y-47838753D01*
X81515520Y-48296123D01*
X81364930Y-48396744D01*
X81325720Y-48455426D01*
X81286510Y-48396744D01*
X80721819Y-48019429D01*
X80055720Y-47886934D01*
X79389621Y-48019429D01*
X78824930Y-48396744D01*
X78785720Y-48455426D01*
X78746510Y-48396744D01*
X78181819Y-48019429D01*
X77515720Y-47886934D01*
X76849621Y-48019429D01*
X76520184Y-48239552D01*
X76480276Y-48177534D01*
X76187206Y-47977288D01*
X75839320Y-47906839D01*
X74112120Y-47906839D01*
X73787123Y-47967991D01*
X73488634Y-48160064D01*
X73288388Y-48453134D01*
X73217939Y-48801020D01*
X73217939Y-50833020D01*
X73279091Y-51158017D01*
X73471164Y-51456506D01*
X73764234Y-51656752D01*
X74112120Y-51727201D01*
X74665166Y-51727201D01*
X72239193Y-54153173D01*
X71697986Y-54152701D01*
X71063011Y-54415067D01*
X70677606Y-54799800D01*
X67401902Y-54799800D01*
X67019544Y-54416774D01*
X66385029Y-54153300D01*
X65697986Y-54152701D01*
X65063011Y-54415067D01*
X64576774Y-54900456D01*
X64313300Y-55534971D01*
X64312701Y-56222014D01*
X64575067Y-56856989D01*
X65060456Y-57343226D01*
X65694971Y-57606700D01*
X66382014Y-57607299D01*
X67016989Y-57344933D01*
X67402394Y-56960200D01*
X70678098Y-56960200D01*
X71060456Y-57343226D01*
X71694971Y-57606700D01*
X72382014Y-57607299D01*
X73016989Y-57344933D01*
X73503226Y-56859544D01*
X73766700Y-56225029D01*
X73767175Y-55680459D01*
X76119633Y-53328000D01*
X79865966Y-53328000D01*
X73517385Y-59676581D01*
X73510315Y-59518542D01*
X73335259Y-59095920D01*
X73083958Y-59015647D01*
X72219605Y-59880000D01*
X72233748Y-59894143D01*
X72054143Y-60073748D01*
X72040000Y-60059605D01*
X71175647Y-60923958D01*
X71255920Y-61175259D01*
X71811279Y-61376718D01*
X71817528Y-61376438D01*
X68284966Y-64909000D01*
X63191191Y-64909000D01*
X62859544Y-64576774D01*
X62225029Y-64313300D01*
X61537986Y-64312701D01*
X60903011Y-64575067D01*
X60517606Y-64959800D01*
X57241902Y-64959800D01*
X56859544Y-64576774D01*
X56225029Y-64313300D01*
X55537986Y-64312701D01*
X54903011Y-64575067D01*
X54416774Y-65060456D01*
X54153300Y-65694971D01*
X54152701Y-66382014D01*
X54415067Y-67016989D01*
X54900456Y-67503226D01*
X55534971Y-67766700D01*
X56222014Y-67767299D01*
X56856989Y-67504933D01*
X57242394Y-67120200D01*
X60518098Y-67120200D01*
X60900456Y-67503226D01*
X61534971Y-67766700D01*
X62222014Y-67767299D01*
X62856989Y-67504933D01*
X63293283Y-67069400D01*
X68732400Y-67069400D01*
X69145775Y-66987175D01*
X69496217Y-66753017D01*
X80838058Y-55411176D01*
X80837925Y-55563241D01*
X74214443Y-62186723D01*
X73980285Y-62537165D01*
X73898060Y-62950540D01*
X73898060Y-63187595D01*
X73789663Y-63207991D01*
X73491174Y-63400064D01*
X73290928Y-63693134D01*
X73220479Y-64041020D01*
X73220479Y-66073020D01*
X73281631Y-66398017D01*
X73473704Y-66696506D01*
X73766774Y-66896752D01*
X74114660Y-66967201D01*
X75841860Y-66967201D01*
X76166857Y-66906049D01*
X76465346Y-66713976D01*
X76520619Y-66633081D01*
X76852161Y-66854611D01*
X77518260Y-66987106D01*
X78184359Y-66854611D01*
X78749050Y-66477296D01*
X78788260Y-66418614D01*
X78827470Y-66477296D01*
X78978060Y-66577917D01*
X78978060Y-68098260D01*
X79060285Y-68511635D01*
X79294443Y-68862077D01*
X83644963Y-73212596D01*
X83644503Y-73739678D01*
X83905076Y-74370314D01*
X84387149Y-74853228D01*
X85017329Y-75114902D01*
X85699678Y-75115497D01*
X86330314Y-74854924D01*
X86630100Y-74555660D01*
X86927149Y-74853228D01*
X87557329Y-75114902D01*
X88239678Y-75115497D01*
X88870314Y-74854924D01*
X89245692Y-74480200D01*
X94226871Y-74480200D01*
X94735666Y-74989884D01*
X95425105Y-75276164D01*
X96171619Y-75276815D01*
X96861558Y-74991739D01*
X97301901Y-74552163D01*
X104987443Y-74552163D01*
X105086042Y-74818965D01*
X105695582Y-75045401D01*
X106345377Y-75021341D01*
X106833958Y-74818965D01*
X106932557Y-74552163D01*
X105960000Y-73579605D01*
X104987443Y-74552163D01*
X97301901Y-74552163D01*
X97389884Y-74464334D01*
X97676164Y-73774895D01*
X97676721Y-73135582D01*
X104314599Y-73135582D01*
X104338659Y-73785377D01*
X104541035Y-74273958D01*
X104807837Y-74372557D01*
X105780395Y-73400000D01*
X106139605Y-73400000D01*
X107112163Y-74372557D01*
X107378965Y-74273958D01*
X107605401Y-73664418D01*
X107581341Y-73014623D01*
X107378965Y-72526042D01*
X107112163Y-72427443D01*
X106139605Y-73400000D01*
X105780395Y-73400000D01*
X104807837Y-72427443D01*
X104541035Y-72526042D01*
X104314599Y-73135582D01*
X97676721Y-73135582D01*
X97676815Y-73028381D01*
X97391739Y-72338442D01*
X97301292Y-72247837D01*
X104987443Y-72247837D01*
X105960000Y-73220395D01*
X106932557Y-72247837D01*
X106833958Y-71981035D01*
X106224418Y-71754599D01*
X105574623Y-71778659D01*
X105086042Y-71981035D01*
X104987443Y-72247837D01*
X97301292Y-72247837D01*
X96864334Y-71810116D01*
X96174895Y-71523836D01*
X95428381Y-71523185D01*
X94738442Y-71808261D01*
X94226010Y-72319800D01*
X89245229Y-72319800D01*
X88872851Y-71946772D01*
X88242671Y-71685098D01*
X87560322Y-71684503D01*
X86929686Y-71945076D01*
X86629900Y-72244340D01*
X86332851Y-71946772D01*
X85702671Y-71685098D01*
X85172269Y-71684635D01*
X84140166Y-70652532D01*
X115027073Y-70652532D01*
X115125736Y-70919387D01*
X115735461Y-71145908D01*
X116385460Y-71121856D01*
X116874264Y-70919387D01*
X116972927Y-70652532D01*
X127527073Y-70652532D01*
X127625736Y-70919387D01*
X128235461Y-71145908D01*
X128885460Y-71121856D01*
X129374264Y-70919387D01*
X129472927Y-70652532D01*
X128500000Y-69679605D01*
X127527073Y-70652532D01*
X116972927Y-70652532D01*
X116000000Y-69679605D01*
X115027073Y-70652532D01*
X84140166Y-70652532D01*
X82723095Y-69235461D01*
X114354092Y-69235461D01*
X114378144Y-69885460D01*
X114580613Y-70374264D01*
X114847468Y-70472927D01*
X115820395Y-69500000D01*
X116179605Y-69500000D01*
X117152532Y-70472927D01*
X117419387Y-70374264D01*
X117645908Y-69764539D01*
X117626331Y-69235461D01*
X126854092Y-69235461D01*
X126878144Y-69885460D01*
X127080613Y-70374264D01*
X127347468Y-70472927D01*
X128320395Y-69500000D01*
X128679605Y-69500000D01*
X129652532Y-70472927D01*
X129919387Y-70374264D01*
X130145908Y-69764539D01*
X130121856Y-69114540D01*
X129919387Y-68625736D01*
X129652532Y-68527073D01*
X128679605Y-69500000D01*
X128320395Y-69500000D01*
X127347468Y-68527073D01*
X127080613Y-68625736D01*
X126854092Y-69235461D01*
X117626331Y-69235461D01*
X117621856Y-69114540D01*
X117419387Y-68625736D01*
X117152532Y-68527073D01*
X116179605Y-69500000D01*
X115820395Y-69500000D01*
X114847468Y-68527073D01*
X114580613Y-68625736D01*
X114354092Y-69235461D01*
X82723095Y-69235461D01*
X81835102Y-68347468D01*
X115027073Y-68347468D01*
X116000000Y-69320395D01*
X116972927Y-68347468D01*
X127527073Y-68347468D01*
X128500000Y-69320395D01*
X129472927Y-68347468D01*
X129374264Y-68080613D01*
X128764539Y-67854092D01*
X128114540Y-67878144D01*
X127625736Y-68080613D01*
X127527073Y-68347468D01*
X116972927Y-68347468D01*
X116874264Y-68080613D01*
X116264539Y-67854092D01*
X115614540Y-67878144D01*
X115125736Y-68080613D01*
X115027073Y-68347468D01*
X81835102Y-68347468D01*
X81138460Y-67650826D01*
X81138460Y-66577917D01*
X81289050Y-66477296D01*
X81328260Y-66418614D01*
X81367470Y-66477296D01*
X81932161Y-66854611D01*
X82598260Y-66987106D01*
X83264359Y-66854611D01*
X83829050Y-66477296D01*
X83868260Y-66418614D01*
X83907470Y-66477296D01*
X84472161Y-66854611D01*
X85138260Y-66987106D01*
X85804359Y-66854611D01*
X86369050Y-66477296D01*
X86408260Y-66418614D01*
X86447470Y-66477296D01*
X87012161Y-66854611D01*
X87678260Y-66987106D01*
X88344359Y-66854611D01*
X88909050Y-66477296D01*
X88948260Y-66418614D01*
X88987470Y-66477296D01*
X89552161Y-66854611D01*
X90218260Y-66987106D01*
X90884359Y-66854611D01*
X91449050Y-66477296D01*
X91488260Y-66418614D01*
X91527470Y-66477296D01*
X92092161Y-66854611D01*
X92758260Y-66987106D01*
X93424359Y-66854611D01*
X93989050Y-66477296D01*
X94028260Y-66418614D01*
X94067470Y-66477296D01*
X94632161Y-66854611D01*
X95298260Y-66987106D01*
X95964359Y-66854611D01*
X96529050Y-66477296D01*
X96568260Y-66418614D01*
X96607470Y-66477296D01*
X97172161Y-66854611D01*
X97838260Y-66987106D01*
X98504359Y-66854611D01*
X99069050Y-66477296D01*
X99108260Y-66418614D01*
X99147470Y-66477296D01*
X99712161Y-66854611D01*
X100378260Y-66987106D01*
X101044359Y-66854611D01*
X101609050Y-66477296D01*
X101809853Y-66176773D01*
X102016224Y-66407752D01*
X102543469Y-66661729D01*
X102559234Y-66664378D01*
X102791260Y-66543237D01*
X102791260Y-65184020D01*
X102771260Y-65184020D01*
X102771260Y-64930020D01*
X102791260Y-64930020D01*
X102791260Y-64910020D01*
X103045260Y-64910020D01*
X103045260Y-64930020D01*
X103065260Y-64930020D01*
X103065260Y-65184020D01*
X103045260Y-65184020D01*
X103045260Y-66543237D01*
X103277286Y-66664378D01*
X103293051Y-66661729D01*
X103820296Y-66407752D01*
X104026667Y-66176773D01*
X104227470Y-66477296D01*
X104792161Y-66854611D01*
X105458260Y-66987106D01*
X106124359Y-66854611D01*
X106689050Y-66477296D01*
X106728260Y-66418614D01*
X106767470Y-66477296D01*
X107332161Y-66854611D01*
X107998260Y-66987106D01*
X108664359Y-66854611D01*
X109229050Y-66477296D01*
X109268260Y-66418614D01*
X109307470Y-66477296D01*
X109872161Y-66854611D01*
X110538260Y-66987106D01*
X111204359Y-66854611D01*
X111769050Y-66477296D01*
X112146365Y-65912605D01*
X112278860Y-65246506D01*
X112278860Y-64867534D01*
X112146365Y-64201435D01*
X111769050Y-63636744D01*
X111684426Y-63580200D01*
X113052566Y-63580200D01*
X114122868Y-64650502D01*
X114122675Y-64871720D01*
X114407829Y-65561846D01*
X114935376Y-66090316D01*
X115625004Y-66376674D01*
X116371720Y-66377325D01*
X117061846Y-66092171D01*
X117574713Y-65580200D01*
X126926151Y-65580200D01*
X127435376Y-66090316D01*
X128125004Y-66376674D01*
X128871720Y-66377325D01*
X129561846Y-66092171D01*
X130090316Y-65564624D01*
X130376674Y-64874996D01*
X130377325Y-64128280D01*
X130092171Y-63438154D01*
X129564624Y-62909684D01*
X128874996Y-62623326D01*
X128128280Y-62622675D01*
X127438154Y-62907829D01*
X126925287Y-63419800D01*
X117573849Y-63419800D01*
X117064624Y-62909684D01*
X116374996Y-62623326D01*
X115628280Y-62622675D01*
X115290059Y-62762425D01*
X114263817Y-61736183D01*
X113913375Y-61502025D01*
X113500000Y-61419800D01*
X95315280Y-61419800D01*
X94901905Y-61502025D01*
X94551463Y-61736183D01*
X94551461Y-61736186D01*
X93093941Y-63193705D01*
X92758260Y-63126934D01*
X92092161Y-63259429D01*
X91527470Y-63636744D01*
X91488260Y-63695426D01*
X91449050Y-63636744D01*
X90897549Y-63268242D01*
X93648976Y-60407658D01*
X95900747Y-60407658D01*
X95981020Y-60658959D01*
X96536379Y-60860418D01*
X97126558Y-60834015D01*
X97549180Y-60658959D01*
X97629453Y-60407658D01*
X101900747Y-60407658D01*
X101981020Y-60658959D01*
X102536379Y-60860418D01*
X103126558Y-60834015D01*
X103549180Y-60658959D01*
X103629453Y-60407658D01*
X102765100Y-59543305D01*
X101900747Y-60407658D01*
X97629453Y-60407658D01*
X96765100Y-59543305D01*
X95900747Y-60407658D01*
X93648976Y-60407658D01*
X94002400Y-60040213D01*
X94011948Y-60025304D01*
X94026140Y-60014721D01*
X94819318Y-59134979D01*
X95268382Y-59134979D01*
X95294785Y-59725158D01*
X95469841Y-60147780D01*
X95721142Y-60228053D01*
X96585495Y-59363700D01*
X96944705Y-59363700D01*
X97809058Y-60228053D01*
X98060359Y-60147780D01*
X98261818Y-59592421D01*
X98241354Y-59134979D01*
X101268382Y-59134979D01*
X101294785Y-59725158D01*
X101469841Y-60147780D01*
X101721142Y-60228053D01*
X102585495Y-59363700D01*
X102944705Y-59363700D01*
X103809058Y-60228053D01*
X104060359Y-60147780D01*
X104261818Y-59592421D01*
X104235415Y-59002242D01*
X104060359Y-58579620D01*
X103809058Y-58499347D01*
X102944705Y-59363700D01*
X102585495Y-59363700D01*
X101721142Y-58499347D01*
X101469841Y-58579620D01*
X101268382Y-59134979D01*
X98241354Y-59134979D01*
X98235415Y-59002242D01*
X98060359Y-58579620D01*
X97809058Y-58499347D01*
X96944705Y-59363700D01*
X96585495Y-59363700D01*
X95721142Y-58499347D01*
X95469841Y-58579620D01*
X95268382Y-59134979D01*
X94819318Y-59134979D01*
X95554339Y-58319742D01*
X95900747Y-58319742D01*
X96765100Y-59184095D01*
X97629453Y-58319742D01*
X101900747Y-58319742D01*
X102765100Y-59184095D01*
X103629453Y-58319742D01*
X103549180Y-58068441D01*
X102993821Y-57866982D01*
X102403642Y-57893385D01*
X101981020Y-58068441D01*
X101900747Y-58319742D01*
X97629453Y-58319742D01*
X97549180Y-58068441D01*
X96993821Y-57866982D01*
X96403642Y-57893385D01*
X95981020Y-58068441D01*
X95900747Y-58319742D01*
X95554339Y-58319742D01*
X96662529Y-57090611D01*
X97107114Y-57090999D01*
X97742089Y-56828633D01*
X98127494Y-56443900D01*
X101403198Y-56443900D01*
X101785556Y-56826926D01*
X102420071Y-57090400D01*
X103107114Y-57090999D01*
X103742089Y-56828633D01*
X104228326Y-56343244D01*
X104491800Y-55708729D01*
X104492399Y-55021686D01*
X104230033Y-54386711D01*
X103744644Y-53900474D01*
X103147535Y-53652532D01*
X125027073Y-53652532D01*
X125125736Y-53919387D01*
X125735461Y-54145908D01*
X126385460Y-54121856D01*
X126874264Y-53919387D01*
X126972927Y-53652532D01*
X137527073Y-53652532D01*
X137625736Y-53919387D01*
X138235461Y-54145908D01*
X138885460Y-54121856D01*
X139374264Y-53919387D01*
X139472927Y-53652532D01*
X138500000Y-52679605D01*
X137527073Y-53652532D01*
X126972927Y-53652532D01*
X126000000Y-52679605D01*
X125027073Y-53652532D01*
X103147535Y-53652532D01*
X103110129Y-53637000D01*
X102423086Y-53636401D01*
X101788111Y-53898767D01*
X101402706Y-54283500D01*
X98127002Y-54283500D01*
X97744644Y-53900474D01*
X97110129Y-53637000D01*
X96423086Y-53636401D01*
X95788111Y-53898767D01*
X95301874Y-54384156D01*
X95038400Y-55018671D01*
X95037835Y-55666322D01*
X92433286Y-58555117D01*
X87978486Y-63186653D01*
X87678260Y-63126934D01*
X87012161Y-63259429D01*
X86447470Y-63636744D01*
X86408260Y-63695426D01*
X86369050Y-63636744D01*
X85804359Y-63259429D01*
X85138260Y-63126934D01*
X84472161Y-63259429D01*
X83907470Y-63636744D01*
X83868260Y-63695426D01*
X83829050Y-63636744D01*
X83264359Y-63259429D01*
X82598260Y-63126934D01*
X81932161Y-63259429D01*
X81367470Y-63636744D01*
X81328260Y-63695426D01*
X81289050Y-63636744D01*
X80724359Y-63259429D01*
X80058260Y-63126934D01*
X79392161Y-63259429D01*
X78827470Y-63636744D01*
X78788260Y-63695426D01*
X78749050Y-63636744D01*
X78184359Y-63259429D01*
X77518260Y-63126934D01*
X76852161Y-63259429D01*
X76522724Y-63479552D01*
X76482816Y-63417534D01*
X76219094Y-63237340D01*
X79048776Y-60407658D01*
X81700747Y-60407658D01*
X81781020Y-60658959D01*
X82336379Y-60860418D01*
X82926558Y-60834015D01*
X83349180Y-60658959D01*
X83429453Y-60407658D01*
X87700747Y-60407658D01*
X87781020Y-60658959D01*
X88336379Y-60860418D01*
X88926558Y-60834015D01*
X89349180Y-60658959D01*
X89429453Y-60407658D01*
X88565100Y-59543305D01*
X87700747Y-60407658D01*
X83429453Y-60407658D01*
X82565100Y-59543305D01*
X81700747Y-60407658D01*
X79048776Y-60407658D01*
X80321455Y-59134979D01*
X81068382Y-59134979D01*
X81094785Y-59725158D01*
X81269841Y-60147780D01*
X81521142Y-60228053D01*
X82385495Y-59363700D01*
X82744705Y-59363700D01*
X83609058Y-60228053D01*
X83860359Y-60147780D01*
X84061818Y-59592421D01*
X84041354Y-59134979D01*
X87068382Y-59134979D01*
X87094785Y-59725158D01*
X87269841Y-60147780D01*
X87521142Y-60228053D01*
X88385495Y-59363700D01*
X88744705Y-59363700D01*
X89609058Y-60228053D01*
X89860359Y-60147780D01*
X90061818Y-59592421D01*
X90035415Y-59002242D01*
X89860359Y-58579620D01*
X89609058Y-58499347D01*
X88744705Y-59363700D01*
X88385495Y-59363700D01*
X87521142Y-58499347D01*
X87269841Y-58579620D01*
X87068382Y-59134979D01*
X84041354Y-59134979D01*
X84035415Y-59002242D01*
X83860359Y-58579620D01*
X83609058Y-58499347D01*
X82744705Y-59363700D01*
X82385495Y-59363700D01*
X81521142Y-58499347D01*
X81269841Y-58579620D01*
X81068382Y-59134979D01*
X80321455Y-59134979D01*
X81136692Y-58319742D01*
X81700747Y-58319742D01*
X82565100Y-59184095D01*
X83429453Y-58319742D01*
X87700747Y-58319742D01*
X88565100Y-59184095D01*
X89429453Y-58319742D01*
X89349180Y-58068441D01*
X88793821Y-57866982D01*
X88203642Y-57893385D01*
X87781020Y-58068441D01*
X87700747Y-58319742D01*
X83429453Y-58319742D01*
X83349180Y-58068441D01*
X82793821Y-57866982D01*
X82203642Y-57893385D01*
X81781020Y-58068441D01*
X81700747Y-58319742D01*
X81136692Y-58319742D01*
X82365907Y-57090527D01*
X82907114Y-57090999D01*
X83542089Y-56828633D01*
X83927494Y-56443900D01*
X87203198Y-56443900D01*
X87585556Y-56826926D01*
X88220071Y-57090400D01*
X88907114Y-57090999D01*
X89542089Y-56828633D01*
X90028326Y-56343244D01*
X90291800Y-55708729D01*
X90292399Y-55021686D01*
X90075356Y-54496400D01*
X91313000Y-54496400D01*
X91726375Y-54414175D01*
X92076817Y-54180017D01*
X93519537Y-52737297D01*
X93753695Y-52386855D01*
X93783808Y-52235461D01*
X124354092Y-52235461D01*
X124378144Y-52885460D01*
X124580613Y-53374264D01*
X124847468Y-53472927D01*
X125820395Y-52500000D01*
X126179605Y-52500000D01*
X127152532Y-53472927D01*
X127419387Y-53374264D01*
X127645908Y-52764539D01*
X127626331Y-52235461D01*
X136854092Y-52235461D01*
X136878144Y-52885460D01*
X137080613Y-53374264D01*
X137347468Y-53472927D01*
X138320395Y-52500000D01*
X138679605Y-52500000D01*
X139652532Y-53472927D01*
X139919387Y-53374264D01*
X140145908Y-52764539D01*
X140121856Y-52114540D01*
X139919387Y-51625736D01*
X139652532Y-51527073D01*
X138679605Y-52500000D01*
X138320395Y-52500000D01*
X137347468Y-51527073D01*
X137080613Y-51625736D01*
X136854092Y-52235461D01*
X127626331Y-52235461D01*
X127621856Y-52114540D01*
X127419387Y-51625736D01*
X127152532Y-51527073D01*
X126179605Y-52500000D01*
X125820395Y-52500000D01*
X124847468Y-51527073D01*
X124580613Y-51625736D01*
X124354092Y-52235461D01*
X93783808Y-52235461D01*
X93835920Y-51973480D01*
X93835920Y-51337917D01*
X93986510Y-51237296D01*
X94025720Y-51178614D01*
X94064930Y-51237296D01*
X94629621Y-51614611D01*
X95295720Y-51747106D01*
X95961819Y-51614611D01*
X96526510Y-51237296D01*
X96565720Y-51178614D01*
X96604930Y-51237296D01*
X97169621Y-51614611D01*
X97835720Y-51747106D01*
X98501819Y-51614611D01*
X99066510Y-51237296D01*
X99105720Y-51178614D01*
X99144930Y-51237296D01*
X99709621Y-51614611D01*
X100375720Y-51747106D01*
X101041819Y-51614611D01*
X101606510Y-51237296D01*
X101645720Y-51178614D01*
X101684930Y-51237296D01*
X102249621Y-51614611D01*
X102915720Y-51747106D01*
X103581819Y-51614611D01*
X104146510Y-51237296D01*
X104185720Y-51178614D01*
X104224930Y-51237296D01*
X104789621Y-51614611D01*
X105455720Y-51747106D01*
X106121819Y-51614611D01*
X106686510Y-51237296D01*
X106887313Y-50936773D01*
X107093684Y-51167752D01*
X107620929Y-51421729D01*
X107636694Y-51424378D01*
X107868720Y-51303237D01*
X107868720Y-49944020D01*
X107848720Y-49944020D01*
X107848720Y-49690020D01*
X107868720Y-49690020D01*
X107868720Y-48330803D01*
X108122720Y-48330803D01*
X108122720Y-49690020D01*
X108142720Y-49690020D01*
X108142720Y-49944020D01*
X108122720Y-49944020D01*
X108122720Y-51303237D01*
X108354746Y-51424378D01*
X108370511Y-51421729D01*
X108897756Y-51167752D01*
X109104127Y-50936773D01*
X109304930Y-51237296D01*
X109869621Y-51614611D01*
X110535720Y-51747106D01*
X111201819Y-51614611D01*
X111601626Y-51347468D01*
X125027073Y-51347468D01*
X126000000Y-52320395D01*
X126972927Y-51347468D01*
X137527073Y-51347468D01*
X138500000Y-52320395D01*
X139472927Y-51347468D01*
X139374264Y-51080613D01*
X138764539Y-50854092D01*
X138114540Y-50878144D01*
X137625736Y-51080613D01*
X137527073Y-51347468D01*
X126972927Y-51347468D01*
X126874264Y-51080613D01*
X126264539Y-50854092D01*
X125614540Y-50878144D01*
X125125736Y-51080613D01*
X125027073Y-51347468D01*
X111601626Y-51347468D01*
X111766510Y-51237296D01*
X112143825Y-50672605D01*
X112276320Y-50006506D01*
X112276320Y-49627534D01*
X112143825Y-48961435D01*
X111766510Y-48396744D01*
X111201819Y-48019429D01*
X110535720Y-47886934D01*
X109869621Y-48019429D01*
X109304930Y-48396744D01*
X109104127Y-48697267D01*
X108897756Y-48466288D01*
X108370511Y-48212311D01*
X108354746Y-48209662D01*
X108122720Y-48330803D01*
X107868720Y-48330803D01*
X107636694Y-48209662D01*
X107620929Y-48212311D01*
X107093684Y-48466288D01*
X106887313Y-48697267D01*
X106686510Y-48396744D01*
X106121819Y-48019429D01*
X105455720Y-47886934D01*
X104789621Y-48019429D01*
X104224930Y-48396744D01*
X104185720Y-48455426D01*
X104146510Y-48396744D01*
X103581819Y-48019429D01*
X102915720Y-47886934D01*
X102249621Y-48019429D01*
X101684930Y-48396744D01*
X101645720Y-48455426D01*
X101606510Y-48396744D01*
X101041819Y-48019429D01*
X100375720Y-47886934D01*
X99709621Y-48019429D01*
X99144930Y-48396744D01*
X99105720Y-48455426D01*
X99066510Y-48396744D01*
X98501819Y-48019429D01*
X97835720Y-47886934D01*
X97169621Y-48019429D01*
X96604930Y-48396744D01*
X96565720Y-48455426D01*
X96526510Y-48396744D01*
X96375920Y-48296123D01*
X96375920Y-47651714D01*
X96947434Y-47080200D01*
X123052566Y-47080200D01*
X124236183Y-48263817D01*
X124303184Y-48308586D01*
X124407829Y-48561846D01*
X124935376Y-49090316D01*
X125625004Y-49376674D01*
X126371720Y-49377325D01*
X127061846Y-49092171D01*
X127574713Y-48580200D01*
X136926151Y-48580200D01*
X137435376Y-49090316D01*
X138125004Y-49376674D01*
X138871720Y-49377325D01*
X139561846Y-49092171D01*
X140090316Y-48564624D01*
X140376674Y-47874996D01*
X140377325Y-47128280D01*
X140092171Y-46438154D01*
X139564624Y-45909684D01*
X138874996Y-45623326D01*
X138128280Y-45622675D01*
X137438154Y-45907829D01*
X136925287Y-46419800D01*
X127573849Y-46419800D01*
X127064624Y-45909684D01*
X126374996Y-45623326D01*
X125628280Y-45622675D01*
X124938154Y-45907829D01*
X124936807Y-45909173D01*
X124263817Y-45236183D01*
X123913375Y-45002025D01*
X123500000Y-44919800D01*
X96500000Y-44919800D01*
X96086625Y-45002025D01*
X95736183Y-45236183D01*
X94531903Y-46440463D01*
X94297745Y-46790905D01*
X94215520Y-47204280D01*
X94215520Y-48296123D01*
X94064930Y-48396744D01*
X94025720Y-48455426D01*
X93986510Y-48396744D01*
X93421819Y-48019429D01*
X92755720Y-47886934D01*
X92089621Y-48019429D01*
X91524930Y-48396744D01*
X91485720Y-48455426D01*
X91446510Y-48396744D01*
X90881819Y-48019429D01*
X90215720Y-47886934D01*
X89549621Y-48019429D01*
X88984930Y-48396744D01*
X88945720Y-48455426D01*
X88906510Y-48396744D01*
X88755920Y-48296123D01*
X88755920Y-47950120D01*
X88742498Y-47882640D01*
X88747310Y-47814005D01*
X88701733Y-47677702D01*
X88673695Y-47536745D01*
X88635471Y-47479539D01*
X88613652Y-47414287D01*
X88519384Y-47305802D01*
X88439537Y-47186303D01*
X88382329Y-47148078D01*
X88337201Y-47096144D01*
X87183757Y-46202699D01*
X87053424Y-46137686D01*
X86932028Y-46057207D01*
X86866418Y-46044404D01*
X86806602Y-46014566D01*
X86661311Y-46004378D01*
X86518358Y-45976482D01*
X84367560Y-45984283D01*
X80727535Y-42040922D01*
X80709802Y-42028019D01*
X80697617Y-42009783D01*
X80540001Y-41904467D01*
X80386731Y-41792944D01*
X80365410Y-41787809D01*
X80347175Y-41775625D01*
X80161260Y-41738644D01*
X79976973Y-41694263D01*
X79955309Y-41697678D01*
X79933800Y-41693400D01*
X54406800Y-41693400D01*
X53993425Y-41775625D01*
X53642983Y-42009783D01*
X51255383Y-44397383D01*
X51021225Y-44747825D01*
X50939000Y-45161200D01*
X50939000Y-49133366D01*
X45919193Y-54153173D01*
X45377986Y-54152701D01*
X44743011Y-54415067D01*
X44256774Y-54900456D01*
X43993300Y-55534971D01*
X43992701Y-56222014D01*
X35127000Y-56222014D01*
X35127000Y-40576097D01*
X37090496Y-40576097D01*
X37532432Y-41645664D01*
X38350032Y-42464692D01*
X39418825Y-42908494D01*
X40576097Y-42909504D01*
X41645664Y-42467568D01*
X42464692Y-41649968D01*
X42908494Y-40581175D01*
X42908498Y-40576097D01*
X142090496Y-40576097D01*
X142532432Y-41645664D01*
X143350032Y-42464692D01*
X144418825Y-42908494D01*
X145576097Y-42909504D01*
X146645664Y-42467568D01*
X147464692Y-41649968D01*
X147908494Y-40581175D01*
X147909504Y-39423903D01*
X147467568Y-38354336D01*
X146649968Y-37535308D01*
X145581175Y-37091506D01*
X144423903Y-37090496D01*
X143354336Y-37532432D01*
X142535308Y-38350032D01*
X142091506Y-39418825D01*
X142090496Y-40576097D01*
X42908498Y-40576097D01*
X42909504Y-39423903D01*
X42467568Y-38354336D01*
X41649968Y-37535308D01*
X40581175Y-37091506D01*
X39423903Y-37090496D01*
X38354336Y-37532432D01*
X37535308Y-38350032D01*
X37091506Y-39418825D01*
X37090496Y-40576097D01*
X35127000Y-40576097D01*
X35127000Y-35127000D01*
X149873000Y-35127000D01*
X149873000Y-79873000D01*
M02*
