M48
INCH,TZ
T1C0.032
T2C0.039
T3C0.039
T4C0.040
%
G90
G05
T1
X33606Y-28898
X34606Y-28898
T2
X18000Y-22000
X18000Y-23575
X20362Y-22000
X20362Y-23575
X22000Y-26000
X22000Y-27575
X22130Y-17913
X22130Y-19488
X24362Y-26000
X24362Y-27575
X24492Y-17913
X24492Y-19488
X26000Y-22000
X26000Y-23575
X28362Y-22000
X28362Y-23575
X32506Y-21797
X32506Y-23372
X34868Y-21797
X34868Y-23372
X38096Y-21797
X38096Y-23372
X40459Y-21797
X40459Y-23372
X45669Y-25394
X45669Y-27362
X49606Y-18701
X49606Y-20669
X50591Y-25394
X50591Y-27362
X54528Y-18701
X54528Y-20669
T3
X37717Y-28898
X41717Y-28898
T4
X29518Y-19613
X29519Y-25613
X30518Y-19613
X30519Y-25613
X31518Y-19613
X31519Y-25613
X32518Y-19613
X32519Y-25613
X33518Y-19613
X33519Y-25613
X34518Y-19613
X34519Y-25613
X35518Y-19613
X35519Y-25613
X36518Y-19613
X36519Y-25613
X37518Y-19613
X37519Y-25613
X38518Y-19613
X38519Y-25613
X39518Y-19613
X39519Y-25613
X40518Y-19613
X40519Y-25613
X41518Y-19613
X41519Y-25613
X42518Y-19613
X42519Y-25613
X43518Y-19613
X43519Y-25613
T0
M30
