G04 #@! TF.FileFunction,Legend,Bot*
%FSLAX46Y46*%
G04 Gerber Fmt 4.6, Leading zero omitted, Abs format (unit mm)*
G04 Created by KiCad (PCBNEW 4.0.4+e1-6308~48~ubuntu16.04.1-stable) date Thu Sep 15 22:11:00 2016*
%MOMM*%
%LPD*%
G01*
G04 APERTURE LIST*
%ADD10C,0.100000*%
%ADD11C,0.300000*%
%ADD12C,0.010000*%
%ADD13C,0.150000*%
G04 APERTURE END LIST*
D10*
D11*
X74438771Y-55638143D02*
X75653057Y-55638143D01*
X75795914Y-55709571D01*
X75867343Y-55781000D01*
X75938771Y-55923857D01*
X75938771Y-56209571D01*
X75867343Y-56352429D01*
X75795914Y-56423857D01*
X75653057Y-56495286D01*
X74438771Y-56495286D01*
X75867343Y-57138143D02*
X75938771Y-57352429D01*
X75938771Y-57709572D01*
X75867343Y-57852429D01*
X75795914Y-57923858D01*
X75653057Y-57995286D01*
X75510200Y-57995286D01*
X75367343Y-57923858D01*
X75295914Y-57852429D01*
X75224486Y-57709572D01*
X75153057Y-57423858D01*
X75081629Y-57281000D01*
X75010200Y-57209572D01*
X74867343Y-57138143D01*
X74724486Y-57138143D01*
X74581629Y-57209572D01*
X74510200Y-57281000D01*
X74438771Y-57423858D01*
X74438771Y-57781000D01*
X74510200Y-57995286D01*
X75153057Y-59138143D02*
X75224486Y-59352429D01*
X75295914Y-59423857D01*
X75438771Y-59495286D01*
X75653057Y-59495286D01*
X75795914Y-59423857D01*
X75867343Y-59352429D01*
X75938771Y-59209571D01*
X75938771Y-58638143D01*
X74438771Y-58638143D01*
X74438771Y-59138143D01*
X74510200Y-59281000D01*
X74581629Y-59352429D01*
X74724486Y-59423857D01*
X74867343Y-59423857D01*
X75010200Y-59352429D01*
X75081629Y-59281000D01*
X75153057Y-59138143D01*
X75153057Y-58638143D01*
D12*
G36*
X85988323Y-43984870D02*
X85933583Y-43942354D01*
X85880696Y-43885123D01*
X85846633Y-43792885D01*
X85827513Y-43640411D01*
X85819457Y-43402470D01*
X85818317Y-43192701D01*
X85822214Y-42878107D01*
X85835954Y-42667607D01*
X85862610Y-42538473D01*
X85905256Y-42467979D01*
X85917708Y-42457626D01*
X86000603Y-42378733D01*
X86017100Y-42344325D01*
X85976960Y-42304747D01*
X85885908Y-42340682D01*
X85839300Y-42379900D01*
X85791409Y-42487840D01*
X85764940Y-42664169D01*
X85763100Y-42724615D01*
X85735569Y-42946146D01*
X85661930Y-43094269D01*
X85660103Y-43096125D01*
X85591479Y-43182467D01*
X85619747Y-43244792D01*
X85657345Y-43275286D01*
X85729565Y-43396664D01*
X85771908Y-43612488D01*
X85776216Y-43668379D01*
X85797084Y-43864727D01*
X85839036Y-43966613D01*
X85915960Y-44006368D01*
X85921850Y-44007460D01*
X86009339Y-44017694D01*
X85988323Y-43984870D01*
X85988323Y-43984870D01*
G37*
X85988323Y-43984870D02*
X85933583Y-43942354D01*
X85880696Y-43885123D01*
X85846633Y-43792885D01*
X85827513Y-43640411D01*
X85819457Y-43402470D01*
X85818317Y-43192701D01*
X85822214Y-42878107D01*
X85835954Y-42667607D01*
X85862610Y-42538473D01*
X85905256Y-42467979D01*
X85917708Y-42457626D01*
X86000603Y-42378733D01*
X86017100Y-42344325D01*
X85976960Y-42304747D01*
X85885908Y-42340682D01*
X85839300Y-42379900D01*
X85791409Y-42487840D01*
X85764940Y-42664169D01*
X85763100Y-42724615D01*
X85735569Y-42946146D01*
X85661930Y-43094269D01*
X85660103Y-43096125D01*
X85591479Y-43182467D01*
X85619747Y-43244792D01*
X85657345Y-43275286D01*
X85729565Y-43396664D01*
X85771908Y-43612488D01*
X85776216Y-43668379D01*
X85797084Y-43864727D01*
X85839036Y-43966613D01*
X85915960Y-44006368D01*
X85921850Y-44007460D01*
X86009339Y-44017694D01*
X85988323Y-43984870D01*
G36*
X99002850Y-44007460D02*
X99082254Y-43970342D01*
X99125873Y-43872990D01*
X99147594Y-43683071D01*
X99148483Y-43668379D01*
X99188568Y-43415698D01*
X99270730Y-43272210D01*
X99275483Y-43268408D01*
X99349449Y-43198588D01*
X99317465Y-43149103D01*
X99272725Y-43122378D01*
X99197363Y-43035239D01*
X99164731Y-42867255D01*
X99161600Y-42757745D01*
X99146421Y-42562439D01*
X99108028Y-42416192D01*
X99085400Y-42379900D01*
X98985741Y-42312351D01*
X98916838Y-42316281D01*
X98907600Y-42344325D01*
X98952322Y-42410909D01*
X99006991Y-42457626D01*
X99053767Y-42517803D01*
X99083845Y-42631369D01*
X99100296Y-42821050D01*
X99106195Y-43109572D01*
X99106382Y-43192701D01*
X99103390Y-43498889D01*
X99091826Y-43703395D01*
X99067812Y-43831449D01*
X99027468Y-43908281D01*
X98991116Y-43942354D01*
X98913385Y-44006734D01*
X98942179Y-44017064D01*
X99002850Y-44007460D01*
X99002850Y-44007460D01*
G37*
X99002850Y-44007460D02*
X99082254Y-43970342D01*
X99125873Y-43872990D01*
X99147594Y-43683071D01*
X99148483Y-43668379D01*
X99188568Y-43415698D01*
X99270730Y-43272210D01*
X99275483Y-43268408D01*
X99349449Y-43198588D01*
X99317465Y-43149103D01*
X99272725Y-43122378D01*
X99197363Y-43035239D01*
X99164731Y-42867255D01*
X99161600Y-42757745D01*
X99146421Y-42562439D01*
X99108028Y-42416192D01*
X99085400Y-42379900D01*
X98985741Y-42312351D01*
X98916838Y-42316281D01*
X98907600Y-42344325D01*
X98952322Y-42410909D01*
X99006991Y-42457626D01*
X99053767Y-42517803D01*
X99083845Y-42631369D01*
X99100296Y-42821050D01*
X99106195Y-43109572D01*
X99106382Y-43192701D01*
X99103390Y-43498889D01*
X99091826Y-43703395D01*
X99067812Y-43831449D01*
X99027468Y-43908281D01*
X98991116Y-43942354D01*
X98913385Y-44006734D01*
X98942179Y-44017064D01*
X99002850Y-44007460D01*
G36*
X87819158Y-43609923D02*
X87820848Y-43609670D01*
X88006403Y-43570332D01*
X88093842Y-43514557D01*
X88112600Y-43442810D01*
X88080819Y-43335884D01*
X88012891Y-43337323D01*
X87962636Y-43414950D01*
X87877434Y-43482826D01*
X87725219Y-43508927D01*
X87559061Y-43492822D01*
X87432029Y-43434078D01*
X87417775Y-43419379D01*
X87381972Y-43336686D01*
X87455018Y-43268484D01*
X87469325Y-43260629D01*
X87635058Y-43206537D01*
X87759175Y-43192700D01*
X87926281Y-43148415D01*
X88050555Y-43064245D01*
X88136383Y-42948023D01*
X88125546Y-42838512D01*
X88110194Y-42807206D01*
X87998421Y-42685479D01*
X87882355Y-42618161D01*
X87742066Y-42571538D01*
X87638577Y-42572226D01*
X87497007Y-42621588D01*
X87487610Y-42625349D01*
X87353162Y-42658201D01*
X87281235Y-42649326D01*
X87239015Y-42675400D01*
X87223600Y-42776203D01*
X87244879Y-42897320D01*
X87287100Y-42938700D01*
X87343634Y-42887354D01*
X87350600Y-42844660D01*
X87403932Y-42751717D01*
X87536392Y-42700262D01*
X87706675Y-42691476D01*
X87873473Y-42726541D01*
X87995482Y-42806637D01*
X88009437Y-42825828D01*
X88042057Y-42941895D01*
X87967880Y-43028986D01*
X87778724Y-43094081D01*
X87670059Y-43115349D01*
X87437751Y-43183325D01*
X87318368Y-43284497D01*
X87316785Y-43411788D01*
X87393105Y-43517428D01*
X87500020Y-43600921D01*
X87624647Y-43628002D01*
X87819158Y-43609923D01*
X87819158Y-43609923D01*
G37*
X87819158Y-43609923D02*
X87820848Y-43609670D01*
X88006403Y-43570332D01*
X88093842Y-43514557D01*
X88112600Y-43442810D01*
X88080819Y-43335884D01*
X88012891Y-43337323D01*
X87962636Y-43414950D01*
X87877434Y-43482826D01*
X87725219Y-43508927D01*
X87559061Y-43492822D01*
X87432029Y-43434078D01*
X87417775Y-43419379D01*
X87381972Y-43336686D01*
X87455018Y-43268484D01*
X87469325Y-43260629D01*
X87635058Y-43206537D01*
X87759175Y-43192700D01*
X87926281Y-43148415D01*
X88050555Y-43064245D01*
X88136383Y-42948023D01*
X88125546Y-42838512D01*
X88110194Y-42807206D01*
X87998421Y-42685479D01*
X87882355Y-42618161D01*
X87742066Y-42571538D01*
X87638577Y-42572226D01*
X87497007Y-42621588D01*
X87487610Y-42625349D01*
X87353162Y-42658201D01*
X87281235Y-42649326D01*
X87239015Y-42675400D01*
X87223600Y-42776203D01*
X87244879Y-42897320D01*
X87287100Y-42938700D01*
X87343634Y-42887354D01*
X87350600Y-42844660D01*
X87403932Y-42751717D01*
X87536392Y-42700262D01*
X87706675Y-42691476D01*
X87873473Y-42726541D01*
X87995482Y-42806637D01*
X88009437Y-42825828D01*
X88042057Y-42941895D01*
X87967880Y-43028986D01*
X87778724Y-43094081D01*
X87670059Y-43115349D01*
X87437751Y-43183325D01*
X87318368Y-43284497D01*
X87316785Y-43411788D01*
X87393105Y-43517428D01*
X87500020Y-43600921D01*
X87624647Y-43628002D01*
X87819158Y-43609923D01*
G36*
X89699372Y-43610714D02*
X89871974Y-43582848D01*
X89994591Y-43564183D01*
X90001725Y-43563202D01*
X90059781Y-43500251D01*
X90077769Y-43388492D01*
X90074438Y-43224450D01*
X89974774Y-43367325D01*
X89827133Y-43480509D01*
X89629196Y-43517707D01*
X89432162Y-43478788D01*
X89290950Y-43369071D01*
X89207167Y-43163543D01*
X89227083Y-42970376D01*
X89327717Y-42810957D01*
X89486089Y-42706674D01*
X89679220Y-42678917D01*
X89884129Y-42749073D01*
X89926088Y-42777931D01*
X90066470Y-42862606D01*
X90137850Y-42856010D01*
X90144600Y-42826975D01*
X90088019Y-42737947D01*
X89945920Y-42662227D01*
X89759766Y-42610986D01*
X89571021Y-42595397D01*
X89421149Y-42626633D01*
X89414350Y-42630211D01*
X89226769Y-42782399D01*
X89139869Y-42989972D01*
X89128600Y-43136728D01*
X89182369Y-43375285D01*
X89328887Y-43541388D01*
X89545969Y-43616614D01*
X89699372Y-43610714D01*
X89699372Y-43610714D01*
G37*
X89699372Y-43610714D02*
X89871974Y-43582848D01*
X89994591Y-43564183D01*
X90001725Y-43563202D01*
X90059781Y-43500251D01*
X90077769Y-43388492D01*
X90074438Y-43224450D01*
X89974774Y-43367325D01*
X89827133Y-43480509D01*
X89629196Y-43517707D01*
X89432162Y-43478788D01*
X89290950Y-43369071D01*
X89207167Y-43163543D01*
X89227083Y-42970376D01*
X89327717Y-42810957D01*
X89486089Y-42706674D01*
X89679220Y-42678917D01*
X89884129Y-42749073D01*
X89926088Y-42777931D01*
X90066470Y-42862606D01*
X90137850Y-42856010D01*
X90144600Y-42826975D01*
X90088019Y-42737947D01*
X89945920Y-42662227D01*
X89759766Y-42610986D01*
X89571021Y-42595397D01*
X89421149Y-42626633D01*
X89414350Y-42630211D01*
X89226769Y-42782399D01*
X89139869Y-42989972D01*
X89128600Y-43136728D01*
X89182369Y-43375285D01*
X89328887Y-43541388D01*
X89545969Y-43616614D01*
X89699372Y-43610714D01*
G36*
X93562798Y-43598241D02*
X93716650Y-43511205D01*
X93876755Y-43317850D01*
X93928773Y-43097417D01*
X93875455Y-42881846D01*
X93719551Y-42703072D01*
X93642981Y-42655992D01*
X93488210Y-42583575D01*
X93379235Y-42568765D01*
X93251542Y-42606234D01*
X93215269Y-42620666D01*
X93038723Y-42749222D01*
X92913029Y-42944637D01*
X92876862Y-43108484D01*
X93002100Y-43108484D01*
X93053363Y-42894430D01*
X93185439Y-42748399D01*
X93365758Y-42684231D01*
X93561751Y-42715764D01*
X93700600Y-42811700D01*
X93810975Y-42994953D01*
X93819296Y-43190194D01*
X93738989Y-43363283D01*
X93583481Y-43480081D01*
X93425883Y-43510200D01*
X93203075Y-43458317D01*
X93054737Y-43316098D01*
X93002100Y-43108484D01*
X92876862Y-43108484D01*
X92875100Y-43116464D01*
X92927471Y-43277046D01*
X93057616Y-43443983D01*
X93225082Y-43577249D01*
X93389413Y-43636817D01*
X93401401Y-43637200D01*
X93562798Y-43598241D01*
X93562798Y-43598241D01*
G37*
X93562798Y-43598241D02*
X93716650Y-43511205D01*
X93876755Y-43317850D01*
X93928773Y-43097417D01*
X93875455Y-42881846D01*
X93719551Y-42703072D01*
X93642981Y-42655992D01*
X93488210Y-42583575D01*
X93379235Y-42568765D01*
X93251542Y-42606234D01*
X93215269Y-42620666D01*
X93038723Y-42749222D01*
X92913029Y-42944637D01*
X92876862Y-43108484D01*
X93002100Y-43108484D01*
X93053363Y-42894430D01*
X93185439Y-42748399D01*
X93365758Y-42684231D01*
X93561751Y-42715764D01*
X93700600Y-42811700D01*
X93810975Y-42994953D01*
X93819296Y-43190194D01*
X93738989Y-43363283D01*
X93583481Y-43480081D01*
X93425883Y-43510200D01*
X93203075Y-43458317D01*
X93054737Y-43316098D01*
X93002100Y-43108484D01*
X92876862Y-43108484D01*
X92875100Y-43116464D01*
X92927471Y-43277046D01*
X93057616Y-43443983D01*
X93225082Y-43577249D01*
X93389413Y-43636817D01*
X93401401Y-43637200D01*
X93562798Y-43598241D01*
G36*
X95471117Y-43592320D02*
X95637990Y-43481179D01*
X95779748Y-43339027D01*
X95855669Y-43201115D01*
X95859600Y-43169969D01*
X95801704Y-42926149D01*
X95648338Y-42724210D01*
X95547981Y-42655992D01*
X95393210Y-42583575D01*
X95284235Y-42568765D01*
X95156542Y-42606234D01*
X95120269Y-42620666D01*
X94943723Y-42749222D01*
X94818029Y-42944637D01*
X94781862Y-43108484D01*
X94907100Y-43108484D01*
X94958363Y-42894430D01*
X95090439Y-42748399D01*
X95270758Y-42684231D01*
X95466751Y-42715764D01*
X95605600Y-42811700D01*
X95715975Y-42994953D01*
X95724296Y-43190194D01*
X95643989Y-43363283D01*
X95488481Y-43480081D01*
X95330883Y-43510200D01*
X95108075Y-43458317D01*
X94959737Y-43316098D01*
X94907100Y-43108484D01*
X94781862Y-43108484D01*
X94780100Y-43116464D01*
X94833463Y-43281825D01*
X94966741Y-43449580D01*
X95139715Y-43580927D01*
X95312166Y-43637064D01*
X95319850Y-43637200D01*
X95471117Y-43592320D01*
X95471117Y-43592320D01*
G37*
X95471117Y-43592320D02*
X95637990Y-43481179D01*
X95779748Y-43339027D01*
X95855669Y-43201115D01*
X95859600Y-43169969D01*
X95801704Y-42926149D01*
X95648338Y-42724210D01*
X95547981Y-42655992D01*
X95393210Y-42583575D01*
X95284235Y-42568765D01*
X95156542Y-42606234D01*
X95120269Y-42620666D01*
X94943723Y-42749222D01*
X94818029Y-42944637D01*
X94781862Y-43108484D01*
X94907100Y-43108484D01*
X94958363Y-42894430D01*
X95090439Y-42748399D01*
X95270758Y-42684231D01*
X95466751Y-42715764D01*
X95605600Y-42811700D01*
X95715975Y-42994953D01*
X95724296Y-43190194D01*
X95643989Y-43363283D01*
X95488481Y-43480081D01*
X95330883Y-43510200D01*
X95108075Y-43458317D01*
X94959737Y-43316098D01*
X94907100Y-43108484D01*
X94781862Y-43108484D01*
X94780100Y-43116464D01*
X94833463Y-43281825D01*
X94966741Y-43449580D01*
X95139715Y-43580927D01*
X95312166Y-43637064D01*
X95319850Y-43637200D01*
X95471117Y-43592320D01*
G36*
X91135751Y-43962995D02*
X91208845Y-43833715D01*
X91217006Y-43665574D01*
X91198478Y-43598522D01*
X91191070Y-43527688D01*
X91270657Y-43542900D01*
X91271004Y-43543046D01*
X91536647Y-43620928D01*
X91729382Y-43597180D01*
X91853830Y-43468382D01*
X91914615Y-43231118D01*
X91922600Y-43061150D01*
X91936654Y-42821360D01*
X91976905Y-42685968D01*
X92001975Y-42663255D01*
X92000814Y-42641991D01*
X91898717Y-42629262D01*
X91859100Y-42628145D01*
X91723959Y-42634892D01*
X91706943Y-42662743D01*
X91733268Y-42681557D01*
X91788055Y-42745452D01*
X91808282Y-42871121D01*
X91798458Y-43088855D01*
X91796768Y-43108251D01*
X91773980Y-43316395D01*
X91741332Y-43429733D01*
X91681391Y-43480233D01*
X91583609Y-43499085D01*
X91379041Y-43478068D01*
X91251480Y-43357927D01*
X91199321Y-43136700D01*
X91198839Y-43028129D01*
X91223914Y-42832841D01*
X91273794Y-42701482D01*
X91296728Y-42677715D01*
X91311394Y-42640595D01*
X91202104Y-42626978D01*
X91160600Y-42627186D01*
X91036646Y-42637282D01*
X91006904Y-42657282D01*
X91017725Y-42663255D01*
X91058672Y-42728818D01*
X91084313Y-42893449D01*
X91096014Y-43168446D01*
X91097100Y-43320336D01*
X91094367Y-43611404D01*
X91083490Y-43799192D01*
X91060451Y-43907351D01*
X91021231Y-43959534D01*
X90985975Y-43974428D01*
X90928637Y-43997391D01*
X90992455Y-44009414D01*
X91016515Y-44010834D01*
X91135751Y-43962995D01*
X91135751Y-43962995D01*
G37*
X91135751Y-43962995D02*
X91208845Y-43833715D01*
X91217006Y-43665574D01*
X91198478Y-43598522D01*
X91191070Y-43527688D01*
X91270657Y-43542900D01*
X91271004Y-43543046D01*
X91536647Y-43620928D01*
X91729382Y-43597180D01*
X91853830Y-43468382D01*
X91914615Y-43231118D01*
X91922600Y-43061150D01*
X91936654Y-42821360D01*
X91976905Y-42685968D01*
X92001975Y-42663255D01*
X92000814Y-42641991D01*
X91898717Y-42629262D01*
X91859100Y-42628145D01*
X91723959Y-42634892D01*
X91706943Y-42662743D01*
X91733268Y-42681557D01*
X91788055Y-42745452D01*
X91808282Y-42871121D01*
X91798458Y-43088855D01*
X91796768Y-43108251D01*
X91773980Y-43316395D01*
X91741332Y-43429733D01*
X91681391Y-43480233D01*
X91583609Y-43499085D01*
X91379041Y-43478068D01*
X91251480Y-43357927D01*
X91199321Y-43136700D01*
X91198839Y-43028129D01*
X91223914Y-42832841D01*
X91273794Y-42701482D01*
X91296728Y-42677715D01*
X91311394Y-42640595D01*
X91202104Y-42626978D01*
X91160600Y-42627186D01*
X91036646Y-42637282D01*
X91006904Y-42657282D01*
X91017725Y-42663255D01*
X91058672Y-42728818D01*
X91084313Y-42893449D01*
X91096014Y-43168446D01*
X91097100Y-43320336D01*
X91094367Y-43611404D01*
X91083490Y-43799192D01*
X91060451Y-43907351D01*
X91021231Y-43959534D01*
X90985975Y-43974428D01*
X90928637Y-43997391D01*
X90992455Y-44009414D01*
X91016515Y-44010834D01*
X91135751Y-43962995D01*
G36*
X97270253Y-43367325D02*
X97288350Y-42716450D01*
X97510600Y-42677185D01*
X97573755Y-42657898D01*
X97513061Y-42644866D01*
X97331532Y-42638504D01*
X97224850Y-42637919D01*
X96995458Y-42641475D01*
X96885683Y-42651868D01*
X96898543Y-42668683D01*
X96939100Y-42677185D01*
X97161350Y-42716450D01*
X97179470Y-43331141D01*
X97197591Y-43945831D01*
X97020720Y-43972502D01*
X96909738Y-43991072D01*
X96915272Y-44000783D01*
X97042443Y-44008427D01*
X97048003Y-44008686D01*
X97252157Y-44018200D01*
X97270253Y-43367325D01*
X97270253Y-43367325D01*
G37*
X97270253Y-43367325D02*
X97288350Y-42716450D01*
X97510600Y-42677185D01*
X97573755Y-42657898D01*
X97513061Y-42644866D01*
X97331532Y-42638504D01*
X97224850Y-42637919D01*
X96995458Y-42641475D01*
X96885683Y-42651868D01*
X96898543Y-42668683D01*
X96939100Y-42677185D01*
X97161350Y-42716450D01*
X97179470Y-43331141D01*
X97197591Y-43945831D01*
X97020720Y-43972502D01*
X96909738Y-43991072D01*
X96915272Y-44000783D01*
X97042443Y-44008427D01*
X97048003Y-44008686D01*
X97252157Y-44018200D01*
X97270253Y-43367325D01*
G36*
X83810475Y-46546349D02*
X84016850Y-46526450D01*
X84016850Y-42906950D01*
X83855723Y-42888160D01*
X83717016Y-42889854D01*
X83649348Y-42914619D01*
X83632317Y-42991909D01*
X83618215Y-43170672D01*
X83608383Y-43425392D01*
X83604166Y-43730551D01*
X83604100Y-43774784D01*
X83604100Y-44589700D01*
X82766817Y-44589700D01*
X82422401Y-44588180D01*
X82180918Y-44581355D01*
X82018313Y-44565836D01*
X81910535Y-44538228D01*
X81833528Y-44495141D01*
X81781646Y-44450766D01*
X81608059Y-44358403D01*
X81432922Y-44378102D01*
X81290322Y-44500032D01*
X81237943Y-44607610D01*
X81225521Y-44763646D01*
X81327084Y-44763646D01*
X81354322Y-44569311D01*
X81356643Y-44563144D01*
X81445189Y-44482677D01*
X81586404Y-44468565D01*
X81724167Y-44521643D01*
X81761915Y-44557126D01*
X81809149Y-44695489D01*
X81805702Y-44716700D01*
X83731100Y-44716700D01*
X83731882Y-44199281D01*
X83734727Y-43795405D01*
X83740381Y-43491621D01*
X83749593Y-43274479D01*
X83763109Y-43130530D01*
X83781677Y-43046322D01*
X83806043Y-43008405D01*
X83826350Y-43002200D01*
X83855095Y-43016281D01*
X83877533Y-43067488D01*
X83894409Y-43169272D01*
X83906473Y-43335084D01*
X83914470Y-43578374D01*
X83919148Y-43912592D01*
X83921255Y-44351188D01*
X83921600Y-44716700D01*
X83920817Y-45234120D01*
X83917972Y-45637996D01*
X83912318Y-45941780D01*
X83903106Y-46158922D01*
X83889590Y-46302871D01*
X83871022Y-46387079D01*
X83846656Y-46424996D01*
X83826350Y-46431200D01*
X83797604Y-46417120D01*
X83775166Y-46365913D01*
X83758290Y-46264129D01*
X83746226Y-46098317D01*
X83738229Y-45855027D01*
X83733551Y-45520809D01*
X83731444Y-45082213D01*
X83731100Y-44716700D01*
X81805702Y-44716700D01*
X81783078Y-44855906D01*
X81697653Y-44976406D01*
X81663298Y-44995219D01*
X81501774Y-45005064D01*
X81382969Y-44918385D01*
X81327084Y-44763646D01*
X81225521Y-44763646D01*
X81221485Y-44814338D01*
X81300575Y-44976306D01*
X81446070Y-45072866D01*
X81628829Y-45083371D01*
X81798088Y-45004470D01*
X81886823Y-44963211D01*
X82037744Y-44934993D01*
X82269928Y-44917933D01*
X82602452Y-44910148D01*
X82762725Y-44909220D01*
X83604100Y-44907200D01*
X83604100Y-46566247D01*
X83810475Y-46546349D01*
X83810475Y-46546349D01*
G37*
X83810475Y-46546349D02*
X84016850Y-46526450D01*
X84016850Y-42906950D01*
X83855723Y-42888160D01*
X83717016Y-42889854D01*
X83649348Y-42914619D01*
X83632317Y-42991909D01*
X83618215Y-43170672D01*
X83608383Y-43425392D01*
X83604166Y-43730551D01*
X83604100Y-43774784D01*
X83604100Y-44589700D01*
X82766817Y-44589700D01*
X82422401Y-44588180D01*
X82180918Y-44581355D01*
X82018313Y-44565836D01*
X81910535Y-44538228D01*
X81833528Y-44495141D01*
X81781646Y-44450766D01*
X81608059Y-44358403D01*
X81432922Y-44378102D01*
X81290322Y-44500032D01*
X81237943Y-44607610D01*
X81225521Y-44763646D01*
X81327084Y-44763646D01*
X81354322Y-44569311D01*
X81356643Y-44563144D01*
X81445189Y-44482677D01*
X81586404Y-44468565D01*
X81724167Y-44521643D01*
X81761915Y-44557126D01*
X81809149Y-44695489D01*
X81805702Y-44716700D01*
X83731100Y-44716700D01*
X83731882Y-44199281D01*
X83734727Y-43795405D01*
X83740381Y-43491621D01*
X83749593Y-43274479D01*
X83763109Y-43130530D01*
X83781677Y-43046322D01*
X83806043Y-43008405D01*
X83826350Y-43002200D01*
X83855095Y-43016281D01*
X83877533Y-43067488D01*
X83894409Y-43169272D01*
X83906473Y-43335084D01*
X83914470Y-43578374D01*
X83919148Y-43912592D01*
X83921255Y-44351188D01*
X83921600Y-44716700D01*
X83920817Y-45234120D01*
X83917972Y-45637996D01*
X83912318Y-45941780D01*
X83903106Y-46158922D01*
X83889590Y-46302871D01*
X83871022Y-46387079D01*
X83846656Y-46424996D01*
X83826350Y-46431200D01*
X83797604Y-46417120D01*
X83775166Y-46365913D01*
X83758290Y-46264129D01*
X83746226Y-46098317D01*
X83738229Y-45855027D01*
X83733551Y-45520809D01*
X83731444Y-45082213D01*
X83731100Y-44716700D01*
X81805702Y-44716700D01*
X81783078Y-44855906D01*
X81697653Y-44976406D01*
X81663298Y-44995219D01*
X81501774Y-45005064D01*
X81382969Y-44918385D01*
X81327084Y-44763646D01*
X81225521Y-44763646D01*
X81221485Y-44814338D01*
X81300575Y-44976306D01*
X81446070Y-45072866D01*
X81628829Y-45083371D01*
X81798088Y-45004470D01*
X81886823Y-44963211D01*
X82037744Y-44934993D01*
X82269928Y-44917933D01*
X82602452Y-44910148D01*
X82762725Y-44909220D01*
X83604100Y-44907200D01*
X83604100Y-46566247D01*
X83810475Y-46546349D01*
G36*
X100939600Y-44907200D02*
X101886953Y-44907200D01*
X102278006Y-44909867D01*
X102563949Y-44919219D01*
X102766589Y-44937285D01*
X102907733Y-44966095D01*
X103009185Y-45007679D01*
X103017647Y-45012423D01*
X103236455Y-45082266D01*
X103439075Y-45050077D01*
X103590710Y-44923978D01*
X103619788Y-44871864D01*
X103657013Y-44739508D01*
X103616665Y-44617636D01*
X103563723Y-44540241D01*
X103396480Y-44391397D01*
X103213544Y-44351297D01*
X103042975Y-44423993D01*
X103006070Y-44459695D01*
X102952166Y-44509531D01*
X102881344Y-44544751D01*
X102772526Y-44567865D01*
X102604631Y-44581381D01*
X102356579Y-44587809D01*
X102007291Y-44589659D01*
X101914008Y-44589700D01*
X100939600Y-44589700D01*
X100939600Y-42875200D01*
X100558600Y-42875200D01*
X100558600Y-44753087D01*
X102989103Y-44753087D01*
X103010212Y-44597482D01*
X103035784Y-44557126D01*
X103174329Y-44476312D01*
X103345906Y-44475093D01*
X103466900Y-44538900D01*
X103542707Y-44685192D01*
X103520630Y-44836330D01*
X103423540Y-44957839D01*
X103274309Y-45015240D01*
X103159849Y-45001736D01*
X103044477Y-44907531D01*
X102989103Y-44753087D01*
X100558600Y-44753087D01*
X100558600Y-46558200D01*
X100939600Y-46558200D01*
X100939600Y-44907200D01*
X100939600Y-44907200D01*
G37*
X100939600Y-44907200D02*
X101886953Y-44907200D01*
X102278006Y-44909867D01*
X102563949Y-44919219D01*
X102766589Y-44937285D01*
X102907733Y-44966095D01*
X103009185Y-45007679D01*
X103017647Y-45012423D01*
X103236455Y-45082266D01*
X103439075Y-45050077D01*
X103590710Y-44923978D01*
X103619788Y-44871864D01*
X103657013Y-44739508D01*
X103616665Y-44617636D01*
X103563723Y-44540241D01*
X103396480Y-44391397D01*
X103213544Y-44351297D01*
X103042975Y-44423993D01*
X103006070Y-44459695D01*
X102952166Y-44509531D01*
X102881344Y-44544751D01*
X102772526Y-44567865D01*
X102604631Y-44581381D01*
X102356579Y-44587809D01*
X102007291Y-44589659D01*
X101914008Y-44589700D01*
X100939600Y-44589700D01*
X100939600Y-42875200D01*
X100558600Y-42875200D01*
X100558600Y-44753087D01*
X102989103Y-44753087D01*
X103010212Y-44597482D01*
X103035784Y-44557126D01*
X103174329Y-44476312D01*
X103345906Y-44475093D01*
X103466900Y-44538900D01*
X103542707Y-44685192D01*
X103520630Y-44836330D01*
X103423540Y-44957839D01*
X103274309Y-45015240D01*
X103159849Y-45001736D01*
X103044477Y-44907531D01*
X102989103Y-44753087D01*
X100558600Y-44753087D01*
X100558600Y-46558200D01*
X100939600Y-46558200D01*
X100939600Y-44907200D01*
G36*
X90398600Y-44208700D02*
X89763600Y-44208700D01*
X89763600Y-44512713D01*
X89771325Y-44682207D01*
X89808362Y-44810031D01*
X89895503Y-44936575D01*
X90053542Y-45102227D01*
X90081100Y-45129450D01*
X90398600Y-45442176D01*
X90398600Y-44208700D01*
X90398600Y-44208700D01*
G37*
X90398600Y-44208700D02*
X89763600Y-44208700D01*
X89763600Y-44512713D01*
X89771325Y-44682207D01*
X89808362Y-44810031D01*
X89895503Y-44936575D01*
X90053542Y-45102227D01*
X90081100Y-45129450D01*
X90398600Y-45442176D01*
X90398600Y-44208700D01*
G36*
X92543478Y-45420854D02*
X92554027Y-45269896D01*
X92557600Y-45078838D01*
X92552247Y-44853072D01*
X92523907Y-44705639D01*
X92454154Y-44587954D01*
X92324566Y-44451432D01*
X92316797Y-44443838D01*
X92156165Y-44301684D01*
X92016235Y-44232019D01*
X91836294Y-44209861D01*
X91745297Y-44208700D01*
X91414600Y-44208700D01*
X91414600Y-44843700D01*
X91659910Y-44843700D01*
X91806387Y-44856420D01*
X91930111Y-44909047D01*
X92068148Y-45023281D01*
X92202205Y-45161200D01*
X92354656Y-45319971D01*
X92471497Y-45433826D01*
X92527974Y-45478672D01*
X92528394Y-45478700D01*
X92543478Y-45420854D01*
X92543478Y-45420854D01*
G37*
X92543478Y-45420854D02*
X92554027Y-45269896D01*
X92557600Y-45078838D01*
X92552247Y-44853072D01*
X92523907Y-44705639D01*
X92454154Y-44587954D01*
X92324566Y-44451432D01*
X92316797Y-44443838D01*
X92156165Y-44301684D01*
X92016235Y-44232019D01*
X91836294Y-44209861D01*
X91745297Y-44208700D01*
X91414600Y-44208700D01*
X91414600Y-44843700D01*
X91659910Y-44843700D01*
X91806387Y-44856420D01*
X91930111Y-44909047D01*
X92068148Y-45023281D01*
X92202205Y-45161200D01*
X92354656Y-45319971D01*
X92471497Y-45433826D01*
X92527974Y-45478672D01*
X92528394Y-45478700D01*
X92543478Y-45420854D01*
G36*
X96939100Y-44208700D02*
X96666837Y-44208700D01*
X96510256Y-44218860D01*
X96384222Y-44263324D01*
X96250080Y-44363074D01*
X96081850Y-44526200D01*
X95769124Y-44843700D01*
X96939100Y-44843700D01*
X96939100Y-44208700D01*
X96939100Y-44208700D01*
G37*
X96939100Y-44208700D02*
X96666837Y-44208700D01*
X96510256Y-44218860D01*
X96384222Y-44263324D01*
X96250080Y-44363074D01*
X96081850Y-44526200D01*
X95769124Y-44843700D01*
X96939100Y-44843700D01*
X96939100Y-44208700D01*
G36*
X85826600Y-46653450D02*
X85995667Y-46479528D01*
X86091064Y-46350102D01*
X86133582Y-46224784D01*
X86144015Y-46063182D01*
X86144100Y-46036713D01*
X86144100Y-45732700D01*
X87006124Y-45732700D01*
X87311884Y-45422272D01*
X87473809Y-45252167D01*
X87566066Y-45123438D01*
X87609318Y-44988192D01*
X87624232Y-44798539D01*
X87626997Y-44691988D01*
X87627192Y-44479814D01*
X87618682Y-44328869D01*
X87603517Y-44272166D01*
X87549739Y-44314818D01*
X87422847Y-44432485D01*
X87238912Y-44609769D01*
X87014008Y-44831271D01*
X86874350Y-44970700D01*
X86633350Y-45210447D01*
X86424204Y-45414718D01*
X86262985Y-45568112D01*
X86165766Y-45655231D01*
X86145182Y-45669330D01*
X86133675Y-45610199D01*
X86127571Y-45449759D01*
X86127349Y-45213605D01*
X86132186Y-44970830D01*
X86135559Y-44690239D01*
X86129542Y-44463432D01*
X86115395Y-44315999D01*
X86097782Y-44272200D01*
X86027621Y-44314269D01*
X85900828Y-44423416D01*
X85776321Y-44544479D01*
X85509100Y-44816758D01*
X85509100Y-46966176D01*
X85826600Y-46653450D01*
X85826600Y-46653450D01*
G37*
X85826600Y-46653450D02*
X85995667Y-46479528D01*
X86091064Y-46350102D01*
X86133582Y-46224784D01*
X86144015Y-46063182D01*
X86144100Y-46036713D01*
X86144100Y-45732700D01*
X87006124Y-45732700D01*
X87311884Y-45422272D01*
X87473809Y-45252167D01*
X87566066Y-45123438D01*
X87609318Y-44988192D01*
X87624232Y-44798539D01*
X87626997Y-44691988D01*
X87627192Y-44479814D01*
X87618682Y-44328869D01*
X87603517Y-44272166D01*
X87549739Y-44314818D01*
X87422847Y-44432485D01*
X87238912Y-44609769D01*
X87014008Y-44831271D01*
X86874350Y-44970700D01*
X86633350Y-45210447D01*
X86424204Y-45414718D01*
X86262985Y-45568112D01*
X86165766Y-45655231D01*
X86145182Y-45669330D01*
X86133675Y-45610199D01*
X86127571Y-45449759D01*
X86127349Y-45213605D01*
X86132186Y-44970830D01*
X86135559Y-44690239D01*
X86129542Y-44463432D01*
X86115395Y-44315999D01*
X86097782Y-44272200D01*
X86027621Y-44314269D01*
X85900828Y-44423416D01*
X85776321Y-44544479D01*
X85509100Y-44816758D01*
X85509100Y-46966176D01*
X85826600Y-46653450D01*
G36*
X89700100Y-46080308D02*
X88779350Y-45161200D01*
X87858600Y-44242093D01*
X87858600Y-45131093D01*
X88779350Y-46050200D01*
X89700100Y-46969308D01*
X89700100Y-46080308D01*
X89700100Y-46080308D01*
G37*
X89700100Y-46080308D02*
X88779350Y-45161200D01*
X87858600Y-44242093D01*
X87858600Y-45131093D01*
X88779350Y-46050200D01*
X89700100Y-46969308D01*
X89700100Y-46080308D01*
G36*
X91287600Y-45611844D02*
X91286764Y-45214852D01*
X91284428Y-44864591D01*
X91280847Y-44579570D01*
X91276278Y-44378297D01*
X91270976Y-44279283D01*
X91269071Y-44272200D01*
X91218549Y-44313692D01*
X91106052Y-44421475D01*
X90983321Y-44544479D01*
X90716100Y-44816758D01*
X90721142Y-46335950D01*
X91004371Y-46643719D01*
X91287600Y-46951487D01*
X91287600Y-45611844D01*
X91287600Y-45611844D01*
G37*
X91287600Y-45611844D02*
X91286764Y-45214852D01*
X91284428Y-44864591D01*
X91280847Y-44579570D01*
X91276278Y-44378297D01*
X91270976Y-44279283D01*
X91269071Y-44272200D01*
X91218549Y-44313692D01*
X91106052Y-44421475D01*
X90983321Y-44544479D01*
X90716100Y-44816758D01*
X90721142Y-46335950D01*
X91004371Y-46643719D01*
X91287600Y-46951487D01*
X91287600Y-45611844D01*
G36*
X94715008Y-46995632D02*
X94858834Y-46977193D01*
X94907100Y-46954040D01*
X94864318Y-46895007D01*
X94746043Y-46763043D01*
X94567379Y-46574217D01*
X94343432Y-46344596D01*
X94176850Y-46177201D01*
X93446600Y-45449022D01*
X93446600Y-45132890D01*
X93437173Y-44942598D01*
X93393689Y-44803447D01*
X93293339Y-44665214D01*
X93179378Y-44544479D01*
X93032349Y-44400023D01*
X92921760Y-44301247D01*
X92877753Y-44272076D01*
X92865857Y-44331355D01*
X92859002Y-44492784D01*
X92857700Y-44731592D01*
X92862341Y-45018201D01*
X92881332Y-45764450D01*
X93496149Y-46383576D01*
X94110967Y-47002701D01*
X94509033Y-47002701D01*
X94715008Y-46995632D01*
X94715008Y-46995632D01*
G37*
X94715008Y-46995632D02*
X94858834Y-46977193D01*
X94907100Y-46954040D01*
X94864318Y-46895007D01*
X94746043Y-46763043D01*
X94567379Y-46574217D01*
X94343432Y-46344596D01*
X94176850Y-46177201D01*
X93446600Y-45449022D01*
X93446600Y-45132890D01*
X93437173Y-44942598D01*
X93393689Y-44803447D01*
X93293339Y-44665214D01*
X93179378Y-44544479D01*
X93032349Y-44400023D01*
X92921760Y-44301247D01*
X92877753Y-44272076D01*
X92865857Y-44331355D01*
X92859002Y-44492784D01*
X92857700Y-44731592D01*
X92862341Y-45018201D01*
X92881332Y-45764450D01*
X93496149Y-46383576D01*
X94110967Y-47002701D01*
X94509033Y-47002701D01*
X94715008Y-46995632D01*
G36*
X94129209Y-45473363D02*
X94278490Y-45447102D01*
X94391245Y-45384547D01*
X94512650Y-45270326D01*
X94513643Y-45269302D01*
X94627896Y-45138367D01*
X94688896Y-45015146D01*
X94712964Y-44851125D01*
X94716600Y-44666052D01*
X94709643Y-44462966D01*
X94691504Y-44323819D01*
X94668975Y-44280654D01*
X94609588Y-44327347D01*
X94481193Y-44448977D01*
X94301752Y-44627936D01*
X94089229Y-44846617D01*
X94053557Y-44883904D01*
X93485764Y-45478700D01*
X93898225Y-45478700D01*
X94129209Y-45473363D01*
X94129209Y-45473363D01*
G37*
X94129209Y-45473363D02*
X94278490Y-45447102D01*
X94391245Y-45384547D01*
X94512650Y-45270326D01*
X94513643Y-45269302D01*
X94627896Y-45138367D01*
X94688896Y-45015146D01*
X94712964Y-44851125D01*
X94716600Y-44666052D01*
X94709643Y-44462966D01*
X94691504Y-44323819D01*
X94668975Y-44280654D01*
X94609588Y-44327347D01*
X94481193Y-44448977D01*
X94301752Y-44627936D01*
X94089229Y-44846617D01*
X94053557Y-44883904D01*
X93485764Y-45478700D01*
X93898225Y-45478700D01*
X94129209Y-45473363D01*
G36*
X97789244Y-46879008D02*
X97795918Y-46713083D01*
X97803339Y-46462357D01*
X97810859Y-46147922D01*
X97815722Y-45907166D01*
X97835094Y-44875450D01*
X97514097Y-44560338D01*
X97193100Y-44245225D01*
X97194571Y-45290588D01*
X97196043Y-46335950D01*
X97483814Y-46637575D01*
X97631768Y-46790818D01*
X97739891Y-46899344D01*
X97783967Y-46939041D01*
X97789244Y-46879008D01*
X97789244Y-46879008D01*
G37*
X97789244Y-46879008D02*
X97795918Y-46713083D01*
X97803339Y-46462357D01*
X97810859Y-46147922D01*
X97815722Y-45907166D01*
X97835094Y-44875450D01*
X97514097Y-44560338D01*
X97193100Y-44245225D01*
X97194571Y-45290588D01*
X97196043Y-46335950D01*
X97483814Y-46637575D01*
X97631768Y-46790818D01*
X97739891Y-46899344D01*
X97783967Y-46939041D01*
X97789244Y-46879008D01*
G36*
X98506719Y-45728601D02*
X98651620Y-45702734D01*
X98772078Y-45634748D01*
X98914605Y-45504292D01*
X98992502Y-45425706D01*
X99294881Y-45118711D01*
X99275865Y-44693943D01*
X99256850Y-44269175D01*
X98574225Y-44954350D01*
X98337519Y-45194844D01*
X98136435Y-45404688D01*
X97986521Y-45567210D01*
X97903329Y-45665743D01*
X97891600Y-45686112D01*
X97949430Y-45710188D01*
X98100332Y-45727016D01*
X98290862Y-45732700D01*
X98506719Y-45728601D01*
X98506719Y-45728601D01*
G37*
X98506719Y-45728601D02*
X98651620Y-45702734D01*
X98772078Y-45634748D01*
X98914605Y-45504292D01*
X98992502Y-45425706D01*
X99294881Y-45118711D01*
X99275865Y-44693943D01*
X99256850Y-44269175D01*
X98574225Y-44954350D01*
X98337519Y-45194844D01*
X98136435Y-45404688D01*
X97986521Y-45567210D01*
X97903329Y-45665743D01*
X97891600Y-45686112D01*
X97949430Y-45710188D01*
X98100332Y-45727016D01*
X98290862Y-45732700D01*
X98506719Y-45728601D01*
G36*
X90081100Y-46653450D02*
X90247486Y-46484471D01*
X90342405Y-46359470D01*
X90385906Y-46234370D01*
X90398034Y-46065090D01*
X90398600Y-45955350D01*
X90395525Y-45762391D01*
X90374112Y-45626909D01*
X90316072Y-45511604D01*
X90203119Y-45379175D01*
X90031633Y-45206838D01*
X89664667Y-44843700D01*
X89269633Y-44843700D01*
X89064512Y-44846051D01*
X88921696Y-44852179D01*
X88874600Y-44859760D01*
X88915671Y-44909216D01*
X89026455Y-45029819D01*
X89188303Y-45201496D01*
X89319100Y-45338297D01*
X89763600Y-45800774D01*
X89763600Y-46966176D01*
X90081100Y-46653450D01*
X90081100Y-46653450D01*
G37*
X90081100Y-46653450D02*
X90247486Y-46484471D01*
X90342405Y-46359470D01*
X90385906Y-46234370D01*
X90398034Y-46065090D01*
X90398600Y-45955350D01*
X90395525Y-45762391D01*
X90374112Y-45626909D01*
X90316072Y-45511604D01*
X90203119Y-45379175D01*
X90031633Y-45206838D01*
X89664667Y-44843700D01*
X89269633Y-44843700D01*
X89064512Y-44846051D01*
X88921696Y-44852179D01*
X88874600Y-44859760D01*
X88915671Y-44909216D01*
X89026455Y-45029819D01*
X89188303Y-45201496D01*
X89319100Y-45338297D01*
X89763600Y-45800774D01*
X89763600Y-46966176D01*
X90081100Y-46653450D01*
G36*
X95415100Y-46653450D02*
X95607784Y-46444160D01*
X95708433Y-46281054D01*
X95732600Y-46163713D01*
X95749423Y-46039032D01*
X95826338Y-45992307D01*
X95927821Y-45986701D01*
X96069348Y-45959799D01*
X96226721Y-45867540D01*
X96428658Y-45692594D01*
X96451696Y-45670570D01*
X96780350Y-45354440D01*
X95740266Y-45351700D01*
X95720558Y-45126271D01*
X95700850Y-44900841D01*
X95097600Y-45514813D01*
X95097600Y-46966176D01*
X95415100Y-46653450D01*
X95415100Y-46653450D01*
G37*
X95415100Y-46653450D02*
X95607784Y-46444160D01*
X95708433Y-46281054D01*
X95732600Y-46163713D01*
X95749423Y-46039032D01*
X95826338Y-45992307D01*
X95927821Y-45986701D01*
X96069348Y-45959799D01*
X96226721Y-45867540D01*
X96428658Y-45692594D01*
X96451696Y-45670570D01*
X96780350Y-45354440D01*
X95740266Y-45351700D01*
X95720558Y-45126271D01*
X95700850Y-44900841D01*
X95097600Y-45514813D01*
X95097600Y-46966176D01*
X95415100Y-46653450D01*
G36*
X87613619Y-46388760D02*
X87624984Y-45806691D01*
X87626741Y-45552811D01*
X87622010Y-45355481D01*
X87611773Y-45242633D01*
X87604600Y-45226611D01*
X87548765Y-45270995D01*
X87434615Y-45384768D01*
X87302975Y-45525758D01*
X87033100Y-45822917D01*
X87033100Y-46969279D01*
X87613619Y-46388760D01*
X87613619Y-46388760D01*
G37*
X87613619Y-46388760D02*
X87624984Y-45806691D01*
X87626741Y-45552811D01*
X87622010Y-45355481D01*
X87611773Y-45242633D01*
X87604600Y-45226611D01*
X87548765Y-45270995D01*
X87434615Y-45384768D01*
X87302975Y-45525758D01*
X87033100Y-45822917D01*
X87033100Y-46969279D01*
X87613619Y-46388760D01*
G36*
X99225100Y-46634588D02*
X99218204Y-46417375D01*
X99182603Y-46272736D01*
X99095925Y-46146399D01*
X98971100Y-46018450D01*
X98717100Y-45770426D01*
X98717100Y-46367700D01*
X97891600Y-46367700D01*
X97891600Y-47002700D01*
X99225100Y-47002700D01*
X99225100Y-46634588D01*
X99225100Y-46634588D01*
G37*
X99225100Y-46634588D02*
X99218204Y-46417375D01*
X99182603Y-46272736D01*
X99095925Y-46146399D01*
X98971100Y-46018450D01*
X98717100Y-45770426D01*
X98717100Y-46367700D01*
X97891600Y-46367700D01*
X97891600Y-47002700D01*
X99225100Y-47002700D01*
X99225100Y-46634588D01*
G36*
X93446190Y-46736305D02*
X93430550Y-46558007D01*
X93369988Y-46404339D01*
X93243105Y-46227792D01*
X93187249Y-46161325D01*
X93046116Y-46004022D01*
X92936157Y-45894890D01*
X92886034Y-45859678D01*
X92868076Y-45918343D01*
X92856291Y-46075216D01*
X92852359Y-46301589D01*
X92853540Y-46415303D01*
X92863730Y-46970950D01*
X93155165Y-46990305D01*
X93446600Y-47009659D01*
X93446190Y-46736305D01*
X93446190Y-46736305D01*
G37*
X93446190Y-46736305D02*
X93430550Y-46558007D01*
X93369988Y-46404339D01*
X93243105Y-46227792D01*
X93187249Y-46161325D01*
X93046116Y-46004022D01*
X92936157Y-45894890D01*
X92886034Y-45859678D01*
X92868076Y-45918343D01*
X92856291Y-46075216D01*
X92852359Y-46301589D01*
X92853540Y-46415303D01*
X92863730Y-46970950D01*
X93155165Y-46990305D01*
X93446600Y-47009659D01*
X93446190Y-46736305D01*
G36*
X92424981Y-46957707D02*
X92540196Y-46948373D01*
X92557620Y-46941604D01*
X92516708Y-46884374D01*
X92410494Y-46765517D01*
X92290378Y-46639979D01*
X92126802Y-46484414D01*
X91996652Y-46402686D01*
X91851353Y-46371654D01*
X91718878Y-46367700D01*
X91414600Y-46367700D01*
X91414600Y-46621700D01*
X91410964Y-46791459D01*
X91401917Y-46899993D01*
X91398725Y-46912611D01*
X91450342Y-46929690D01*
X91602005Y-46945062D01*
X91826760Y-46956482D01*
X91970245Y-46960236D01*
X92225686Y-46961957D01*
X92424981Y-46957707D01*
X92424981Y-46957707D01*
G37*
X92424981Y-46957707D02*
X92540196Y-46948373D01*
X92557620Y-46941604D01*
X92516708Y-46884374D01*
X92410494Y-46765517D01*
X92290378Y-46639979D01*
X92126802Y-46484414D01*
X91996652Y-46402686D01*
X91851353Y-46371654D01*
X91718878Y-46367700D01*
X91414600Y-46367700D01*
X91414600Y-46621700D01*
X91410964Y-46791459D01*
X91401917Y-46899993D01*
X91398725Y-46912611D01*
X91450342Y-46929690D01*
X91602005Y-46945062D01*
X91826760Y-46956482D01*
X91970245Y-46960236D01*
X92225686Y-46961957D01*
X92424981Y-46957707D01*
G36*
X96468788Y-46685200D02*
X96804497Y-46367700D01*
X95823075Y-46367700D01*
X95510350Y-46685200D01*
X95197624Y-47002700D01*
X95665351Y-47002700D01*
X96133078Y-47002701D01*
X96468788Y-46685200D01*
X96468788Y-46685200D01*
G37*
X96468788Y-46685200D02*
X96804497Y-46367700D01*
X95823075Y-46367700D01*
X95510350Y-46685200D01*
X95197624Y-47002700D01*
X95665351Y-47002700D01*
X96133078Y-47002701D01*
X96468788Y-46685200D01*
D13*
X76245720Y-48547020D02*
X111805720Y-48547020D01*
X111805720Y-48547020D02*
X111805720Y-51087020D01*
X111805720Y-51087020D02*
X76245720Y-51087020D01*
X73425720Y-51367020D02*
X74975720Y-51367020D01*
X76245720Y-51087020D02*
X76245720Y-48547020D01*
X74975720Y-48267020D02*
X73425720Y-48267020D01*
X73425720Y-48267020D02*
X73425720Y-51367020D01*
X76248260Y-63787020D02*
X111808260Y-63787020D01*
X111808260Y-63787020D02*
X111808260Y-66327020D01*
X111808260Y-66327020D02*
X76248260Y-66327020D01*
X73428260Y-66607020D02*
X74978260Y-66607020D01*
X76248260Y-66327020D02*
X76248260Y-63787020D01*
X74978260Y-63507020D02*
X73428260Y-63507020D01*
X73428260Y-63507020D02*
X73428260Y-66607020D01*
X70328101Y-49078925D02*
X69328101Y-49078925D01*
X69328101Y-49459878D01*
X69375720Y-49555116D01*
X69423339Y-49602735D01*
X69518577Y-49650354D01*
X69661434Y-49650354D01*
X69756672Y-49602735D01*
X69804291Y-49555116D01*
X69851910Y-49459878D01*
X69851910Y-49078925D01*
X70328101Y-50602735D02*
X70328101Y-50031306D01*
X70328101Y-50317020D02*
X69328101Y-50317020D01*
X69470958Y-50221782D01*
X69566196Y-50126544D01*
X69613815Y-50031306D01*
X70330641Y-64318925D02*
X69330641Y-64318925D01*
X69330641Y-64699878D01*
X69378260Y-64795116D01*
X69425879Y-64842735D01*
X69521117Y-64890354D01*
X69663974Y-64890354D01*
X69759212Y-64842735D01*
X69806831Y-64795116D01*
X69854450Y-64699878D01*
X69854450Y-64318925D01*
X69425879Y-65271306D02*
X69378260Y-65318925D01*
X69330641Y-65414163D01*
X69330641Y-65652259D01*
X69378260Y-65747497D01*
X69425879Y-65795116D01*
X69521117Y-65842735D01*
X69616355Y-65842735D01*
X69759212Y-65795116D01*
X70330641Y-65223687D01*
X70330641Y-65842735D01*
M02*
